<svg version="1.2" xmlns="http://www.w3.org/2000/svg" viewBox="0 0 5000 5000" width="5000" height="5000">
	<title>logo_final</title>
	<style>
		tspan { white-space:pre } 
		.t0 { font-size: 100px;line-height: 84px;fill: #36cf36;font-weight: 400;font-family: "DejaVuSans", "DejaVu Sans" } 
		.s1 { fill: #00b8ff } 
		.s2 { fill: #ffffff } 
		.s3 { fill: #000000 } 
	</style>
	<g id="Binary">
		<text id="0 1 " style="transform: matrix(1.178,0,0,1.178,764.298,3186.408)" >
			<tspan x="0" y="0" class="t0">0</tspan><tspan  y="0" class="t0">
</tspan>
			<tspan x="0" y="84" class="t0">1</tspan><tspan  y="84" class="t0">
</tspan>
		</text>
		<text id="0 0 " style="transform: matrix(1.178,0,0,1.178,829.063,3286.499)" >
			<tspan x="0" y="0" class="t0">0</tspan><tspan  y="0" class="t0">
</tspan>
			<tspan x="0" y="84" class="t0">0</tspan><tspan  y="84" class="t0">
</tspan>
		</text>
		<text id="1 1 0 1" style="transform: matrix(1.178,0,0,1.178,897.361,3187.586)" >
			<tspan x="0" y="0" class="t0">1</tspan><tspan  y="0" class="t0">
</tspan>
			<tspan x="0" y="84" class="t0">1</tspan><tspan  y="84" class="t0">
</tspan>
			<tspan x="0" y="168" class="t0">0</tspan><tspan  y="168" class="t0">
</tspan>
			<tspan x="0" y="252" class="t0">1</tspan><tspan  y="252" class="t0">
</tspan>
		</text>
		<text id="0 1 1 0" style="transform: matrix(1.178,0,0,1.178,964.481,3286.499)" >
			<tspan x="0" y="0" class="t0">0</tspan><tspan  y="0" class="t0">
</tspan>
			<tspan x="0" y="84" class="t0">1</tspan><tspan  y="84" class="t0">
</tspan>
			<tspan x="0" y="168" class="t0">1</tspan><tspan  y="168" class="t0">
</tspan>
			<tspan x="0" y="252" class="t0">0</tspan><tspan  y="252" class="t0">
</tspan>
		</text>
		<text id="0 0 1 0 1" style="transform: matrix(1.178,0,0,1.178,1032.587,3286.725)" >
			<tspan x="0" y="0" class="t0">0</tspan><tspan  y="0" class="t0">
</tspan>
			<tspan x="0" y="84" class="t0">0</tspan><tspan  y="84" class="t0">
</tspan>
			<tspan x="0" y="168" class="t0">1</tspan><tspan  y="168" class="t0">
</tspan>
			<tspan x="0" y="252" class="t0">0</tspan><tspan  y="252" class="t0">
</tspan>
			<tspan x="0" y="336" class="t0">1
</tspan>
		</text>
		<text id="1 1 0 1 0 1 1" style="transform: matrix(1.178,0,0,1.178,1099.707,3285.547)" >
			<tspan x="0" y="0" class="t0">1</tspan><tspan  y="0" class="t0">
</tspan>
			<tspan x="0" y="84" class="t0">1</tspan><tspan  y="84" class="t0">
</tspan>
			<tspan x="0" y="168" class="t0">0</tspan><tspan  y="168" class="t0">
</tspan>
			<tspan x="0" y="252" class="t0">1</tspan><tspan  y="252" class="t0">
</tspan>
			<tspan x="0" y="336" class="t0">0</tspan><tspan  y="336" class="t0">
</tspan>
			<tspan x="0" y="420" class="t0">1</tspan><tspan  y="420" class="t0">
</tspan>
			<tspan x="0" y="504" class="t0">1</tspan><tspan  y="504" class="t0">
</tspan>
		</text>
		<text id="0 0 1 0 0 1 0 0 1 0 1 1 1 0 1 1 " style="transform: matrix(1.178,0,0,1.178,1170.36,3285.547)" >
			<tspan x="0" y="0" class="t0">0</tspan><tspan  y="0" class="t0">
</tspan>
			<tspan x="0" y="84" class="t0">0</tspan><tspan  y="84" class="t0">
</tspan>
			<tspan x="0" y="168" class="t0">1</tspan><tspan  y="168" class="t0">
</tspan>
			<tspan x="0" y="252" class="t0">0</tspan><tspan  y="252" class="t0">
</tspan>
			<tspan x="0" y="336" class="t0">0</tspan><tspan  y="336" class="t0">
</tspan>
			<tspan x="0" y="420" class="t0">1</tspan><tspan  y="420" class="t0">
</tspan>
			<tspan x="0" y="504" class="t0">0</tspan><tspan  y="504" class="t0">
</tspan>
			<tspan x="0" y="588" class="t0">0</tspan><tspan  y="588" class="t0">
</tspan>
			<tspan x="0" y="672" class="t0">1</tspan><tspan  y="672" class="t0">
</tspan>
			<tspan x="0" y="756" class="t0">0</tspan><tspan  y="756" class="t0">
</tspan>
			<tspan x="0" y="840" class="t0">1</tspan><tspan  y="840" class="t0">
</tspan>
			<tspan x="0" y="924" class="t0">1</tspan><tspan  y="924" class="t0">
</tspan>
			<tspan x="0" y="1008" class="t0">1</tspan><tspan  y="1008" class="t0">
</tspan>
			<tspan x="0" y="1092" class="t0">0</tspan><tspan  y="1092" class="t0">
</tspan>
			<tspan x="0" y="1176" class="t0">1</tspan><tspan  y="1176" class="t0">
</tspan>
			<tspan x="0" y="1260" class="t0">1</tspan><tspan  y="1260" class="t0">
</tspan>
			<tspan x="0" y="1344" class="t0">0</tspan><tspan  y="1344" class="t0">
</tspan>
		</text>
		<text id="1 0 1 1 1 0 0 0 1 1 1 1 " style="transform: matrix(1.178,0,0,1.178,1241.013,3285.547)" >
			<tspan x="0" y="0" class="t0">1</tspan><tspan  y="0" class="t0">
</tspan>
			<tspan x="0" y="84" class="t0">0</tspan><tspan  y="84" class="t0">
</tspan>
			<tspan x="0" y="168" class="t0">1</tspan><tspan  y="168" class="t0">
</tspan>
			<tspan x="0" y="252" class="t0">1</tspan><tspan  y="252" class="t0">
</tspan>
			<tspan x="0" y="336" class="t0">1</tspan><tspan  y="336" class="t0">
</tspan>
			<tspan x="0" y="420" class="t0">0</tspan><tspan  y="420" class="t0">
</tspan>
			<tspan x="0" y="504" class="t0">0</tspan><tspan  y="504" class="t0">
</tspan>
			<tspan x="0" y="588" class="t0">0</tspan><tspan  y="588" class="t0">
</tspan>
			<tspan x="0" y="672" class="t0">1</tspan><tspan  y="672" class="t0">
</tspan>
			<tspan x="0" y="756" class="t0">1</tspan><tspan  y="756" class="t0">
</tspan>
			<tspan x="0" y="840" class="t0">1</tspan><tspan  y="840" class="t0">
</tspan>
			<tspan x="0" y="924" class="t0">1</tspan><tspan  y="924" class="t0">
</tspan>
		</text>
		<text id="1 0 0 0 1 0 0 1 0 0" style="transform: matrix(1.178,0,0,1.178,1311.666,3285.547)" >
			<tspan x="0" y="0" class="t0">1</tspan><tspan  y="0" class="t0">
</tspan>
			<tspan x="0" y="84" class="t0">0</tspan><tspan  y="84" class="t0">
</tspan>
			<tspan x="0" y="168" class="t0">0</tspan><tspan  y="168" class="t0">
</tspan>
			<tspan x="0" y="252" class="t0">0</tspan><tspan  y="252" class="t0">
</tspan>
			<tspan x="0" y="336" class="t0">1</tspan><tspan  y="336" class="t0">
</tspan>
			<tspan x="0" y="420" class="t0">0</tspan><tspan  y="420" class="t0">
</tspan>
			<tspan x="0" y="504" class="t0">0</tspan><tspan  y="504" class="t0">
</tspan>
			<tspan x="0" y="588" class="t0">1</tspan><tspan  y="588" class="t0">
</tspan>
			<tspan x="0" y="672" class="t0">0</tspan><tspan  y="672" class="t0">
</tspan>
			<tspan x="0" y="756" class="t0">0</tspan><tspan  y="756" class="t0">
</tspan>
		</text>
		<text id="1 1 1 1 0 1 1 0 " style="transform: matrix(1.178,0,0,1.178,1382.318,3285.547)" >
			<tspan x="0" y="0" class="t0">1</tspan><tspan  y="0" class="t0">
</tspan>
			<tspan x="0" y="84" class="t0">1</tspan><tspan  y="84" class="t0">
</tspan>
			<tspan x="0" y="168" class="t0">1</tspan><tspan  y="168" class="t0">
</tspan>
			<tspan x="0" y="252" class="t0">1</tspan><tspan  y="252" class="t0">
</tspan>
			<tspan x="0" y="336" class="t0">0</tspan><tspan  y="336" class="t0">
</tspan>
			<tspan x="0" y="420" class="t0">1</tspan><tspan  y="420" class="t0">
</tspan>
			<tspan x="0" y="504" class="t0">1</tspan><tspan  y="504" class="t0">
</tspan>
			<tspan x="0" y="588" class="t0">0</tspan><tspan  y="588" class="t0">
</tspan>
		</text>
		<text id="0 0 0 1 1 0 " style="transform: matrix(1.178,0,0,1.178,1451.793,3285.547)" >
			<tspan x="0" y="0" class="t0">0</tspan><tspan  y="0" class="t0">
</tspan>
			<tspan x="0" y="84" class="t0">0</tspan><tspan  y="84" class="t0">
</tspan>
			<tspan x="0" y="168" class="t0">0</tspan><tspan  y="168" class="t0">
</tspan>
			<tspan x="0" y="252" class="t0">1</tspan><tspan  y="252" class="t0">
</tspan>
			<tspan x="0" y="336" class="t0">1</tspan><tspan  y="336" class="t0">
</tspan>
			<tspan x="0" y="420" class="t0">0</tspan><tspan  y="420" class="t0">
</tspan>
		</text>
		<text id="0 1 1 0 1 0" style="transform: matrix(1.178,0,0,1.178,1522.446,3285.547)" >
			<tspan x="0" y="0" class="t0">0</tspan><tspan  y="0" class="t0">
</tspan>
			<tspan x="0" y="84" class="t0">1</tspan><tspan  y="84" class="t0">
</tspan>
			<tspan x="0" y="168" class="t0">1</tspan><tspan  y="168" class="t0">
</tspan>
			<tspan x="0" y="252" class="t0">0</tspan><tspan  y="252" class="t0">
</tspan>
			<tspan x="0" y="336" class="t0">1</tspan><tspan  y="336" class="t0">
</tspan>
			<tspan x="0" y="420" class="t0">0
</tspan>
		</text>
		<text id="0 1 0 1 0" style="transform: matrix(1.178,0,0,1.178,1593.099,3285.547)" >
			<tspan x="0" y="0" class="t0">0</tspan><tspan  y="0" class="t0">
</tspan>
			<tspan x="0" y="84" class="t0">1</tspan><tspan  y="84" class="t0">
</tspan>
			<tspan x="0" y="168" class="t0">0</tspan><tspan  y="168" class="t0">
</tspan>
			<tspan x="0" y="252" class="t0">1</tspan><tspan  y="252" class="t0">
</tspan>
			<tspan x="0" y="336" class="t0">0</tspan><tspan  y="336" class="t0">
</tspan>
		</text>
		<text id="0 0 0 0 0" style="transform: matrix(1.178,0,0,1.178,1663.752,3285.547)" >
			<tspan x="0" y="0" class="t0">0</tspan><tspan  y="0" class="t0">
</tspan>
			<tspan x="0" y="84" class="t0">0</tspan><tspan  y="84" class="t0">
</tspan>
			<tspan x="0" y="168" class="t0">0</tspan><tspan  y="168" class="t0">
</tspan>
			<tspan x="0" y="252" class="t0">0</tspan><tspan  y="252" class="t0">
</tspan>
			<tspan x="0" y="336" class="t0">0</tspan><tspan  y="336" class="t0">
</tspan>
		</text>
		<text id="1 1 1 0 0 1" style="transform: matrix(1.178,0,0,1.178,1734.404,3285.547)" >
			<tspan x="0" y="0" class="t0">1</tspan><tspan  y="0" class="t0">
</tspan>
			<tspan x="0" y="84" class="t0">1</tspan><tspan  y="84" class="t0">
</tspan>
			<tspan x="0" y="168" class="t0">1</tspan><tspan  y="168" class="t0">
</tspan>
			<tspan x="0" y="252" class="t0">0</tspan><tspan  y="252" class="t0">
</tspan>
			<tspan x="0" y="336" class="t0">0</tspan><tspan  y="336" class="t0">
</tspan>
			<tspan x="0" y="420" class="t0">1
</tspan>
		</text>
		<text id="1 1 1 1 0 1 1 " style="transform: matrix(1.178,0,0,1.178,1805.057,3285.547)" >
			<tspan x="0" y="0" class="t0">1</tspan><tspan  y="0" class="t0">
</tspan>
			<tspan x="0" y="84" class="t0">1</tspan><tspan  y="84" class="t0">
</tspan>
			<tspan x="0" y="168" class="t0">1</tspan><tspan  y="168" class="t0">
</tspan>
			<tspan x="0" y="252" class="t0">1</tspan><tspan  y="252" class="t0">
</tspan>
			<tspan x="0" y="336" class="t0">0</tspan><tspan  y="336" class="t0">
</tspan>
			<tspan x="0" y="420" class="t0">1</tspan><tspan  y="420" class="t0">
</tspan>
			<tspan x="0" y="504" class="t0">1</tspan><tspan  y="504" class="t0">
</tspan>
		</text>
		<text id="1 0 0 1 0 1 1 0 0 1 0 1" style="transform: matrix(1.178,0,0,1.178,1875.71,3285.547)" >
			<tspan x="0" y="0" class="t0">1</tspan><tspan  y="0" class="t0">
</tspan>
			<tspan x="0" y="84" class="t0">0</tspan><tspan  y="84" class="t0">
</tspan>
			<tspan x="0" y="168" class="t0">0</tspan><tspan  y="168" class="t0">
</tspan>
			<tspan x="0" y="252" class="t0">1</tspan><tspan  y="252" class="t0">
</tspan>
			<tspan x="0" y="336" class="t0">0</tspan><tspan  y="336" class="t0">
</tspan>
			<tspan x="0" y="420" class="t0">1</tspan><tspan  y="420" class="t0">
</tspan>
			<tspan x="0" y="504" class="t0">1</tspan><tspan  y="504" class="t0">
</tspan>
			<tspan x="0" y="588" class="t0">0</tspan><tspan  y="588" class="t0">
</tspan>
			<tspan x="0" y="672" class="t0">0</tspan><tspan  y="672" class="t0">
</tspan>
			<tspan x="0" y="756" class="t0">1</tspan><tspan  y="756" class="t0">
</tspan>
			<tspan x="0" y="840" class="t0">0</tspan><tspan  y="840" class="t0">
</tspan>
			<tspan x="0" y="924" class="t0">1
</tspan>
		</text>
		<text id="1 1 0 1 1 0 0 1 0 " style="transform: matrix(1.178,0,0,1.178,1946.363,3285.547)" >
			<tspan x="0" y="0" class="t0">1</tspan><tspan  y="0" class="t0">
</tspan>
			<tspan x="0" y="84" class="t0">1</tspan><tspan  y="84" class="t0">
</tspan>
			<tspan x="0" y="168" class="t0">0</tspan><tspan  y="168" class="t0">
</tspan>
			<tspan x="0" y="252" class="t0">1</tspan><tspan  y="252" class="t0">
</tspan>
			<tspan x="0" y="336" class="t0">1</tspan><tspan  y="336" class="t0">
</tspan>
			<tspan x="0" y="420" class="t0">0</tspan><tspan  y="420" class="t0">
</tspan>
			<tspan x="0" y="504" class="t0">0</tspan><tspan  y="504" class="t0">
</tspan>
			<tspan x="0" y="588" class="t0">1</tspan><tspan  y="588" class="t0">
</tspan>
			<tspan x="0" y="672" class="t0">0</tspan><tspan  y="672" class="t0">
</tspan>
		</text>
		<text id="1 1 1 0 1 0 1 0" style="transform: matrix(1.178,0,0,1.178,2017.015,3285.547)" >
			<tspan x="0" y="0" class="t0">1</tspan><tspan  y="0" class="t0">
</tspan>
			<tspan x="0" y="84" class="t0">1</tspan><tspan  y="84" class="t0">
</tspan>
			<tspan x="0" y="168" class="t0">1</tspan><tspan  y="168" class="t0">
</tspan>
			<tspan x="0" y="252" class="t0">0</tspan><tspan  y="252" class="t0">
</tspan>
			<tspan x="0" y="336" class="t0">1</tspan><tspan  y="336" class="t0">
</tspan>
			<tspan x="0" y="420" class="t0">0</tspan><tspan  y="420" class="t0">
</tspan>
			<tspan x="0" y="504" class="t0">1</tspan><tspan  y="504" class="t0">
</tspan>
			<tspan x="0" y="588" class="t0">0</tspan><tspan  y="588" class="t0">
</tspan>
		</text>
		<text id="1 0 1 1 0 1 " style="transform: matrix(1.178,0,0,1.178,2087.668,3285.547)" >
			<tspan x="0" y="0" class="t0">1</tspan><tspan  y="0" class="t0">
</tspan>
			<tspan x="0" y="84" class="t0">0</tspan><tspan  y="84" class="t0">
</tspan>
			<tspan x="0" y="168" class="t0">1</tspan><tspan  y="168" class="t0">
</tspan>
			<tspan x="0" y="252" class="t0">1</tspan><tspan  y="252" class="t0">
</tspan>
			<tspan x="0" y="336" class="t0">0</tspan><tspan  y="336" class="t0">
</tspan>
			<tspan x="0" y="420" class="t0">1</tspan><tspan  y="420" class="t0">
</tspan>
		</text>
		<text id="1 1 1 1 1 0" style="transform: matrix(1.178,0,0,1.178,2158.321,3285.547)" >
			<tspan x="0" y="0" class="t0">1</tspan><tspan  y="0" class="t0">
</tspan>
			<tspan x="0" y="84" class="t0">1</tspan><tspan  y="84" class="t0">
</tspan>
			<tspan x="0" y="168" class="t0">1</tspan><tspan  y="168" class="t0">
</tspan>
			<tspan x="0" y="252" class="t0">1</tspan><tspan  y="252" class="t0">
</tspan>
			<tspan x="0" y="336" class="t0">1</tspan><tspan  y="336" class="t0">
</tspan>
			<tspan x="0" y="420" class="t0">0</tspan><tspan  y="420" class="t0">
</tspan>
		</text>
		<text id="1 0 0 1 1" style="transform: matrix(1.178,0,0,1.178,2228.973,3285.547)" >
			<tspan x="0" y="0" class="t0">1</tspan><tspan  y="0" class="t0">
</tspan>
			<tspan x="0" y="84" class="t0">0</tspan><tspan  y="84" class="t0">
</tspan>
			<tspan x="0" y="168" class="t0">0</tspan><tspan  y="168" class="t0">
</tspan>
			<tspan x="0" y="252" class="t0">1</tspan><tspan  y="252" class="t0">
</tspan>
			<tspan x="0" y="336" class="t0">1</tspan><tspan  y="336" class="t0">
</tspan>
		</text>
		<text id="1 1 0 1 0" style="transform: matrix(1.178,0,0,1.178,2299.626,3285.547)" >
			<tspan x="0" y="0" class="t0">1</tspan><tspan  y="0" class="t0">
</tspan>
			<tspan x="0" y="84" class="t0">1</tspan><tspan  y="84" class="t0">
</tspan>
			<tspan x="0" y="168" class="t0">0</tspan><tspan  y="168" class="t0">
</tspan>
			<tspan x="0" y="252" class="t0">1</tspan><tspan  y="252" class="t0">
</tspan>
			<tspan x="0" y="336" class="t0">0</tspan><tspan  y="336" class="t0">
</tspan>
		</text>
		<text id="1 1 1 0 0" style="transform: matrix(1.178,0,0,1.178,2370.279,3285.547)" >
			<tspan x="0" y="0" class="t0">1</tspan><tspan  y="0" class="t0">
</tspan>
			<tspan x="0" y="84" class="t0">1</tspan><tspan  y="84" class="t0">
</tspan>
			<tspan x="0" y="168" class="t0">1</tspan><tspan  y="168" class="t0">
</tspan>
			<tspan x="0" y="252" class="t0">0</tspan><tspan  y="252" class="t0">
</tspan>
			<tspan x="0" y="336" class="t0">0</tspan><tspan  y="336" class="t0">
</tspan>
		</text>
		<text id="1 1 1 0 1" style="transform: matrix(1.178,0,0,1.178,2440.932,3285.547)" >
			<tspan x="0" y="0" class="t0">1</tspan><tspan  y="0" class="t0">
</tspan>
			<tspan x="0" y="84" class="t0">1</tspan><tspan  y="84" class="t0">
</tspan>
			<tspan x="0" y="168" class="t0">1</tspan><tspan  y="168" class="t0">
</tspan>
			<tspan x="0" y="252" class="t0">0</tspan><tspan  y="252" class="t0">
</tspan>
			<tspan x="0" y="336" class="t0">1</tspan><tspan  y="336" class="t0">
</tspan>
		</text>
		<text id="1 0 1 0 1 0" style="transform: matrix(1.178,0,0,1.178,2511.584,3285.547)" >
			<tspan x="0" y="0" class="t0">1</tspan><tspan  y="0" class="t0">
</tspan>
			<tspan x="0" y="84" class="t0">0</tspan><tspan  y="84" class="t0">
</tspan>
			<tspan x="0" y="168" class="t0">1</tspan><tspan  y="168" class="t0">
</tspan>
			<tspan x="0" y="252" class="t0">0</tspan><tspan  y="252" class="t0">
</tspan>
			<tspan x="0" y="336" class="t0">1</tspan><tspan  y="336" class="t0">
</tspan>
			<tspan x="0" y="420" class="t0">0</tspan><tspan  y="420" class="t0">
</tspan>
		</text>
		<text id="1 0 1 1 1 1 0" style="transform: matrix(1.178,0,0,1.178,2582.237,3285.547)" >
			<tspan x="0" y="0" class="t0">1</tspan><tspan  y="0" class="t0">
</tspan>
			<tspan x="0" y="84" class="t0">0</tspan><tspan  y="84" class="t0">
</tspan>
			<tspan x="0" y="168" class="t0">1</tspan><tspan  y="168" class="t0">
</tspan>
			<tspan x="0" y="252" class="t0">1</tspan><tspan  y="252" class="t0">
</tspan>
			<tspan x="0" y="336" class="t0">1</tspan><tspan  y="336" class="t0">
</tspan>
			<tspan x="0" y="420" class="t0">1</tspan><tspan  y="420" class="t0">
</tspan>
			<tspan x="0" y="504" class="t0">0</tspan><tspan  y="504" class="t0">
</tspan>
		</text>
		<text id="1 1 1 0 1 0 1 0" style="transform: matrix(1.178,0,0,1.178,2652.89,3285.547)" >
			<tspan x="0" y="0" class="t0">1</tspan><tspan  y="0" class="t0">
</tspan>
			<tspan x="0" y="84" class="t0">1</tspan><tspan  y="84" class="t0">
</tspan>
			<tspan x="0" y="168" class="t0">1</tspan><tspan  y="168" class="t0">
</tspan>
			<tspan x="0" y="252" class="t0">0</tspan><tspan  y="252" class="t0">
</tspan>
			<tspan x="0" y="336" class="t0">1</tspan><tspan  y="336" class="t0">
</tspan>
			<tspan x="0" y="420" class="t0">0</tspan><tspan  y="420" class="t0">
</tspan>
			<tspan x="0" y="504" class="t0">1</tspan><tspan  y="504" class="t0">
</tspan>
			<tspan x="0" y="588" class="t0">0</tspan><tspan  y="588" class="t0">
</tspan>
		</text>
		<text id="1 0 0 0 0 1 1 0 1 0" style="transform: matrix(1.178,0,0,1.178,2723.542,3285.547)" >
			<tspan x="0" y="0" class="t0">1</tspan><tspan  y="0" class="t0">
</tspan>
			<tspan x="0" y="84" class="t0">0</tspan><tspan  y="84" class="t0">
</tspan>
			<tspan x="0" y="168" class="t0">0</tspan><tspan  y="168" class="t0">
</tspan>
			<tspan x="0" y="252" class="t0">0</tspan><tspan  y="252" class="t0">
</tspan>
			<tspan x="0" y="336" class="t0">0</tspan><tspan  y="336" class="t0">
</tspan>
			<tspan x="0" y="420" class="t0">1</tspan><tspan  y="420" class="t0">
</tspan>
			<tspan x="0" y="504" class="t0">1</tspan><tspan  y="504" class="t0">
</tspan>
			<tspan x="0" y="588" class="t0">0</tspan><tspan  y="588" class="t0">
</tspan>
			<tspan x="0" y="672" class="t0">1</tspan><tspan  y="672" class="t0">
</tspan>
			<tspan x="0" y="756" class="t0">0</tspan><tspan  y="756" class="t0">
</tspan>
		</text>
		<text id="1 0 1 1 0 0 0 1 0 1 1 0 0 1 1" style="transform: matrix(1.178,0,0,1.178,2794.195,3285.547)" >
			<tspan x="0" y="0" class="t0">1</tspan><tspan  y="0" class="t0">
</tspan>
			<tspan x="0" y="84" class="t0">0</tspan><tspan  y="84" class="t0">
</tspan>
			<tspan x="0" y="168" class="t0">1</tspan><tspan  y="168" class="t0">
</tspan>
			<tspan x="0" y="252" class="t0">1</tspan><tspan  y="252" class="t0">
</tspan>
			<tspan x="0" y="336" class="t0">0</tspan><tspan  y="336" class="t0">
</tspan>
			<tspan x="0" y="420" class="t0">0</tspan><tspan  y="420" class="t0">
</tspan>
			<tspan x="0" y="504" class="t0">0</tspan><tspan  y="504" class="t0">
</tspan>
			<tspan x="0" y="588" class="t0">1</tspan><tspan  y="588" class="t0">
</tspan>
			<tspan x="0" y="672" class="t0">0</tspan><tspan  y="672" class="t0">
</tspan>
			<tspan x="0" y="756" class="t0">1</tspan><tspan  y="756" class="t0">
</tspan>
			<tspan x="0" y="840" class="t0">1</tspan><tspan  y="840" class="t0">
</tspan>
			<tspan x="0" y="924" class="t0">0</tspan><tspan  y="924" class="t0">
</tspan>
			<tspan x="0" y="1008" class="t0">0</tspan><tspan  y="1008" class="t0">
</tspan>
			<tspan x="0" y="1092" class="t0">1</tspan><tspan  y="1092" class="t0">
</tspan>
			<tspan x="0" y="1176" class="t0">1</tspan><tspan  y="1176" class="t0">
</tspan>
		</text>
		<text id="1 1 0 0 1 0 0 0 1 0 1 1 " style="transform: matrix(1.178,0,0,1.178,2864.848,3285.547)" >
			<tspan x="0" y="0" class="t0">1</tspan><tspan  y="0" class="t0">
</tspan>
			<tspan x="0" y="84" class="t0">1</tspan><tspan  y="84" class="t0">
</tspan>
			<tspan x="0" y="168" class="t0">0</tspan><tspan  y="168" class="t0">
</tspan>
			<tspan x="0" y="252" class="t0">0</tspan><tspan  y="252" class="t0">
</tspan>
			<tspan x="0" y="336" class="t0">1</tspan><tspan  y="336" class="t0">
</tspan>
			<tspan x="0" y="420" class="t0">0</tspan><tspan  y="420" class="t0">
</tspan>
			<tspan x="0" y="504" class="t0">0</tspan><tspan  y="504" class="t0">
</tspan>
			<tspan x="0" y="588" class="t0">0</tspan><tspan  y="588" class="t0">
</tspan>
			<tspan x="0" y="672" class="t0">1</tspan><tspan  y="672" class="t0">
</tspan>
			<tspan x="0" y="756" class="t0">0</tspan><tspan  y="756" class="t0">
</tspan>
			<tspan x="0" y="840" class="t0">1</tspan><tspan  y="840" class="t0">
</tspan>
			<tspan x="0" y="924" class="t0">1</tspan><tspan  y="924" class="t0">
</tspan>
		</text>
		<text id="1 1 1 0 1 1 1 " style="transform: matrix(1.178,0,0,1.178,2935.501,3285.547)" >
			<tspan x="0" y="0" class="t0">1</tspan><tspan  y="0" class="t0">
</tspan>
			<tspan x="0" y="84" class="t0">1</tspan><tspan  y="84" class="t0">
</tspan>
			<tspan x="0" y="168" class="t0">1</tspan><tspan  y="168" class="t0">
</tspan>
			<tspan x="0" y="252" class="t0">0</tspan><tspan  y="252" class="t0">
</tspan>
			<tspan x="0" y="336" class="t0">1</tspan><tspan  y="336" class="t0">
</tspan>
			<tspan x="0" y="420" class="t0">1</tspan><tspan  y="420" class="t0">
</tspan>
			<tspan x="0" y="504" class="t0">1</tspan><tspan  y="504" class="t0">
</tspan>
		</text>
		<text id="1 0 1 0 0 0" style="transform: matrix(1.178,0,0,1.178,3006.153,3285.547)" >
			<tspan x="0" y="0" class="t0">1</tspan><tspan  y="0" class="t0">
</tspan>
			<tspan x="0" y="84" class="t0">0</tspan><tspan  y="84" class="t0">
</tspan>
			<tspan x="0" y="168" class="t0">1</tspan><tspan  y="168" class="t0">
</tspan>
			<tspan x="0" y="252" class="t0">0</tspan><tspan  y="252" class="t0">
</tspan>
			<tspan x="0" y="336" class="t0">0</tspan><tspan  y="336" class="t0">
</tspan>
			<tspan x="0" y="420" class="t0">0</tspan><tspan  y="420" class="t0">
</tspan>
		</text>
		<text id="1 0 0 1 1" style="transform: matrix(1.178,0,0,1.178,3076.806,3285.547)" >
			<tspan x="0" y="0" class="t0">1</tspan><tspan  y="0" class="t0">
</tspan>
			<tspan x="0" y="84" class="t0">0</tspan><tspan  y="84" class="t0">
</tspan>
			<tspan x="0" y="168" class="t0">0</tspan><tspan  y="168" class="t0">
</tspan>
			<tspan x="0" y="252" class="t0">1</tspan><tspan  y="252" class="t0">
</tspan>
			<tspan x="0" y="336" class="t0">1</tspan><tspan  y="336" class="t0">
</tspan>
		</text>
		<text id="0 1 1 1 0 1" style="transform: matrix(1.178,0,0,1.178,3147.459,3285.547)" >
			<tspan x="0" y="0" class="t0">0</tspan><tspan  y="0" class="t0">
</tspan>
			<tspan x="0" y="84" class="t0">1</tspan><tspan  y="84" class="t0">
</tspan>
			<tspan x="0" y="168" class="t0">1</tspan><tspan  y="168" class="t0">
</tspan>
			<tspan x="0" y="252" class="t0">1</tspan><tspan  y="252" class="t0">
</tspan>
			<tspan x="0" y="336" class="t0">0</tspan><tspan  y="336" class="t0">
</tspan>
			<tspan x="0" y="420" class="t0">1</tspan><tspan  y="420" class="t0">
</tspan>
		</text>
		<text id="0 0 1 1 0 1 0" style="transform: matrix(1.178,0,0,1.178,3218.112,3285.547)" >
			<tspan x="0" y="0" class="t0">0</tspan><tspan  y="0" class="t0">
</tspan>
			<tspan x="0" y="84" class="t0">0</tspan><tspan  y="84" class="t0">
</tspan>
			<tspan x="0" y="168" class="t0">1</tspan><tspan  y="168" class="t0">
</tspan>
			<tspan x="0" y="252" class="t0">1</tspan><tspan  y="252" class="t0">
</tspan>
			<tspan x="0" y="336" class="t0">0</tspan><tspan  y="336" class="t0">
</tspan>
			<tspan x="0" y="420" class="t0">1</tspan><tspan  y="420" class="t0">
</tspan>
			<tspan x="0" y="504" class="t0">0</tspan><tspan  y="504" class="t0">
</tspan>
		</text>
		<text id="1 0 0 0 1 0 1 0 1 0 " style="transform: matrix(1.178,0,0,1.178,3288.764,3285.547)" >
			<tspan x="0" y="0" class="t0">1</tspan><tspan  y="0" class="t0">
</tspan>
			<tspan x="0" y="84" class="t0">0</tspan><tspan  y="84" class="t0">
</tspan>
			<tspan x="0" y="168" class="t0">0</tspan><tspan  y="168" class="t0">
</tspan>
			<tspan x="0" y="252" class="t0">0</tspan><tspan  y="252" class="t0">
</tspan>
			<tspan x="0" y="336" class="t0">1</tspan><tspan  y="336" class="t0">
</tspan>
			<tspan x="0" y="420" class="t0">0</tspan><tspan  y="420" class="t0">
</tspan>
			<tspan x="0" y="504" class="t0">1</tspan><tspan  y="504" class="t0">
</tspan>
			<tspan x="0" y="588" class="t0">0</tspan><tspan  y="588" class="t0">
</tspan>
			<tspan x="0" y="672" class="t0">1</tspan><tspan  y="672" class="t0">
</tspan>
			<tspan x="0" y="756" class="t0">0</tspan><tspan  y="756" class="t0">
</tspan>
		</text>
		<text id="1 1 0 1 0 0 0 1 " style="transform: matrix(1.178,0,0,1.178,3359.417,3285.547)" >
			<tspan x="0" y="0" class="t0">1</tspan><tspan  y="0" class="t0">
</tspan>
			<tspan x="0" y="84" class="t0">1</tspan><tspan  y="84" class="t0">
</tspan>
			<tspan x="0" y="168" class="t0">0</tspan><tspan  y="168" class="t0">
</tspan>
			<tspan x="0" y="252" class="t0">1</tspan><tspan  y="252" class="t0">
</tspan>
			<tspan x="0" y="336" class="t0">0</tspan><tspan  y="336" class="t0">
</tspan>
			<tspan x="0" y="420" class="t0">0</tspan><tspan  y="420" class="t0">
</tspan>
			<tspan x="0" y="504" class="t0">0</tspan><tspan  y="504" class="t0">
</tspan>
			<tspan x="0" y="588" class="t0">1</tspan><tspan  y="588" class="t0">
</tspan>
		</text>
		<text id="0 0 0 0 1 0 1 " style="transform: matrix(1.178,0,0,1.178,3430.07,3285.547)" >
			<tspan x="0" y="0" class="t0">0</tspan><tspan  y="0" class="t0">
</tspan>
			<tspan x="0" y="84" class="t0">0</tspan><tspan  y="84" class="t0">
</tspan>
			<tspan x="0" y="168" class="t0">0</tspan><tspan  y="168" class="t0">
</tspan>
			<tspan x="0" y="252" class="t0">0</tspan><tspan  y="252" class="t0">
</tspan>
			<tspan x="0" y="336" class="t0">1</tspan><tspan  y="336" class="t0">
</tspan>
			<tspan x="0" y="420" class="t0">0</tspan><tspan  y="420" class="t0">
</tspan>
			<tspan x="0" y="504" class="t0">1</tspan><tspan  y="504" class="t0">
</tspan>
		</text>
		<text id="0 0 1 0 1 1" style="transform: matrix(1.178,0,0,1.178,3500.722,3285.547)" >
			<tspan x="0" y="0" class="t0">0</tspan><tspan  y="0" class="t0">
</tspan>
			<tspan x="0" y="84" class="t0">0</tspan><tspan  y="84" class="t0">
</tspan>
			<tspan x="0" y="168" class="t0">1</tspan><tspan  y="168" class="t0">
</tspan>
			<tspan x="0" y="252" class="t0">0</tspan><tspan  y="252" class="t0">
</tspan>
			<tspan x="0" y="336" class="t0">1</tspan><tspan  y="336" class="t0">
</tspan>
			<tspan x="0" y="420" class="t0">1</tspan><tspan  y="420" class="t0">
</tspan>
		</text>
		<text id="1 1 0 0 0" style="transform: matrix(1.178,0,0,1.178,3571.375,3285.547)" >
			<tspan x="0" y="0" class="t0">1</tspan><tspan  y="0" class="t0">
</tspan>
			<tspan x="0" y="84" class="t0">1</tspan><tspan  y="84" class="t0">
</tspan>
			<tspan x="0" y="168" class="t0">0</tspan><tspan  y="168" class="t0">
</tspan>
			<tspan x="0" y="252" class="t0">0</tspan><tspan  y="252" class="t0">
</tspan>
			<tspan x="0" y="336" class="t0">0</tspan><tspan  y="336" class="t0">
</tspan>
		</text>
		<text id="1 0 1 0 1" style="transform: matrix(1.178,0,0,1.178,3642.028,3185.456)" >
			<tspan x="0" y="0" class="t0">1</tspan><tspan  y="0" class="t0">
</tspan>
			<tspan x="0" y="84" class="t0">0</tspan><tspan  y="84" class="t0">
</tspan>
			<tspan x="0" y="168" class="t0">1</tspan><tspan  y="168" class="t0">
</tspan>
			<tspan x="0" y="252" class="t0">0</tspan><tspan  y="252" class="t0">
</tspan>
			<tspan x="0" y="336" class="t0">1</tspan><tspan  y="336" class="t0">
</tspan>
		</text>
		<text id="1 1 0 1 1" style="transform: matrix(1.178,0,0,1.178,3712.681,3185.456)" >
			<tspan x="0" y="0" class="t0">1</tspan><tspan  y="0" class="t0">
</tspan>
			<tspan x="0" y="84" class="t0">1</tspan><tspan  y="84" class="t0">
</tspan>
			<tspan x="0" y="168" class="t0">0</tspan><tspan  y="168" class="t0">
</tspan>
			<tspan x="0" y="252" class="t0">1</tspan><tspan  y="252" class="t0">
</tspan>
			<tspan x="0" y="336" class="t0">1</tspan><tspan  y="336" class="t0">
</tspan>
		</text>
		<text id="1 1 0 1 0" style="transform: matrix(1.178,0,0,1.178,3783.333,3086.542)" >
			<tspan x="0" y="0" class="t0">1</tspan><tspan  y="0" class="t0">
</tspan>
			<tspan x="0" y="84" class="t0">1</tspan><tspan  y="84" class="t0">
</tspan>
			<tspan x="0" y="168" class="t0">0</tspan><tspan  y="168" class="t0">
</tspan>
			<tspan x="0" y="252" class="t0">1</tspan><tspan  y="252" class="t0">
</tspan>
			<tspan x="0" y="336" class="t0">0</tspan><tspan  y="336" class="t0">
</tspan>
		</text>
		<text id="1 1 0 1 1 1" style="transform: matrix(1.178,0,0,1.178,3853.986,2985.273)" >
			<tspan x="0" y="0" class="t0">1</tspan><tspan  y="0" class="t0">
</tspan>
			<tspan x="0" y="84" class="t0">1</tspan><tspan  y="84" class="t0">
</tspan>
			<tspan x="0" y="168" class="t0">0</tspan><tspan  y="168" class="t0">
</tspan>
			<tspan x="0" y="252" class="t0">1</tspan><tspan  y="252" class="t0">
</tspan>
			<tspan x="0" y="336" class="t0">1</tspan><tspan  y="336" class="t0">
</tspan>
			<tspan x="0" y="420" class="t0">1</tspan><tspan  y="420" class="t0">
</tspan>
		</text>
		<text id="1 1 0 0 0" style="transform: matrix(1.178,0,0,1.178,3924.639,2985.273)" >
			<tspan x="0" y="0" class="t0">1</tspan><tspan  y="0" class="t0">
</tspan>
			<tspan x="0" y="84" class="t0">1</tspan><tspan  y="84" class="t0">
</tspan>
			<tspan x="0" y="168" class="t0">0</tspan><tspan  y="168" class="t0">
</tspan>
			<tspan x="0" y="252" class="t0">0</tspan><tspan  y="252" class="t0">
</tspan>
			<tspan x="0" y="336" class="t0">0</tspan><tspan  y="336" class="t0">
</tspan>
		</text>
		<text id="1 1 0 0 0" style="transform: matrix(1.178,0,0,1.178,3995.291,2885.182)" >
			<tspan x="0" y="0" class="t0">1</tspan><tspan  y="0" class="t0">
</tspan>
			<tspan x="0" y="84" class="t0">1</tspan><tspan  y="84" class="t0">
</tspan>
			<tspan x="0" y="168" class="t0">0</tspan><tspan  y="168" class="t0">
</tspan>
			<tspan x="0" y="252" class="t0">0</tspan><tspan  y="252" class="t0">
</tspan>
			<tspan x="0" y="336" class="t0">0</tspan><tspan  y="336" class="t0">
</tspan>
		</text>
	</g>
	<path id="Duck" class="s1" d="m1932.5 2155.5q-13.8-1.2-27.5-2.7-13.7-1.5-27.3-3.4-13.6-1.9-27.1-4.1-13.5-2.3-26.8-4.9-13.3-2.7-26.6-5.7-13.2-3-26.3-6.3-13.1-3.4-26-7.1-13-3.7-25.8-7.8-12.8-4-25.5-8.4-12.7-4.5-25.3-9.2-12.5-4.8-24.9-9.8-12.4-5.1-24.7-10.5-12.2-5.4-24.4-11.2-12.1-5.7-24-11.7-12-6.1-23.8-12.4-11.9-6.3-23.5-13-11.7-6.6-23.2-13.5-11.6-6.9-22.9-14.1-11.4-7.2-22.6-14.6-11.3-7.4-22.3-15.1-11.1-7.7-22-15.6-10.9-8-21.7-16.1-10.7-8.2-21.3-16.5-10.6-8.4-21.1-17-10.4-8.5-20.7-17.3-10.3-8.8-20.4-17.7-10.1-9-20.1-18.1-9.9-9.1-19.7-18.4-9.8-9.3-19.4-18.7-9.7-9.5-19.1-19-9.5-9.6-18.8-19.3-9.3-9.7-18.4-19.6-9.1-9.8-18.1-19.8-8.9-9.9-17.7-20-8.7-10-17.3-20.2-8.6-10.1-17-20.4-8.4-10.2-16.6-20.6-8.2-10.3-16.2-20.7-8-10.4-15.8-20.9-7.8-10.5-15.4-21-7.6-10.6-15-21.2-7.4-10.6-14.6-21.3-7.2-10.7-14.2-21.5-6.9-10.7-13.7-21.5-6.7-10.8-13.2-21.7-6.5-10.8-12.8-21.7-6.3-10.9-12.3-21.9-6.1-10.9-11.9-22-5.7-11-11.3-22-5.5-11.1-10.8-22.2-5.3-11.1-10.3-22.2-5-11.1-9.7-22.4-4.8-11.1-9.2-22.4-4.5-11.2-8.7-22.5-4.2-11.3-8-22.6-3.9-11.3-7.5-22.7-3.6-11.4-6.9-22.8-3.3-11.4-6.3-22.9-2.9-11.4-5.6-22.9-2.7-11.5-5-23.1-2.4-11.5-4.4-23.1-2-11.6-3.7-23.3-1.6-11.6-3-23.3-1.3-11.7-2.3-23.4-1-11.7-1.6-23.3-0.7-11.7-0.9-23.2-0.3-11.5-0.2-23 0-11.4 0.5-22.7 0.4-11.3 1.2-22.6 0.8-11.2 1.9-22.3 1.1-11.2 2.6-22.2 1.5-11 3.3-22 1.8-10.9 4-21.7 2.2-10.9 4.7-21.6 2.5-10.7 5.3-21.3 2.8-10.6 6-21.2 3.1-10.5 6.6-20.9 3.5-10.4 7.3-20.7 3.9-10.3 8-20.4 4.1-10.2 8.6-20.3 4.5-10.1 9.2-20 4.8-10 9.9-19.8 5.1-9.8 10.5-19.6 5.4-9.7 11.1-19.3 5.7-9.6 11.7-19.1 6-9.4 12.3-18.8 6.3-9.3 13-18.6 6.6-9.2 13.5-18.3 6.9-9.1 14.1-18 7.2-9 14.6-17.8 7.5-8.9 15.3-17.6 7.7-8.7 15.8-17.2 8-8.6 16.3-17 8.3-8.4 16.9-16.6 8.6-8.3 17.4-16.4 8.9-8.1 18-16.1 9.1-7.9 18.4-15.7 9.4-7.8 19-15.5 9.6-7.6 19.4-15.1 9.9-7.4 20-14.7 10.1-7.3 20.4-14.4 10.3-7.1 20.8-14.1 10.6-6.9 21.4-13.6 10.7-6.8 21.7-13.3 11-6.6 22.2-12.9 11.2-6.4 22.6-12.5 11.4-6.1 22.9-12.1 11.6-5.9 23.4-11.6 11.8-5.7 23.8-11.2 11.9-5.5 24.1-10.7 12.1-5.2 24.5-10.2 12.3-5 24.8-9.8 12.4-4.8 25.1-9.3 12.6-4.5 25.5-8.7 12.8-4.2 25.7-8.2 13-4 26.1-7.7 13.1-3.7 26.3-7.1 13.3-3.4 26.6-6.5 13.4-3.2 26.9-6 13.5-2.8 27.2-5.3 13.6-2.6 27.3-4.8 13.8-2.2 27.7-4.1 13.8-1.9 27.8-3.5 14-1.6 28.1-2.9 14.1-1.2 28.3-2.1 14.2-1 28.5-1.6 14.3-0.6 28.6-0.8 14.4-0.3 28.9-0.2 14.5 0.2 28.9 0.6 14.4 0.4 28.7 1.2 14.4 0.8 28.6 2 14.2 1.1 28.3 2.6 14.2 1.4 28.2 3.2 14.1 1.8 28 4 13.9 2.1 27.8 4.6 13.8 2.4 27.5 5.2 13.8 2.8 27.4 5.9 13.6 3.1 27.1 6.5 13.5 3.4 26.9 7.1 13.4 3.7 26.6 7.7 13.3 4 26.4 8.3 13.2 4.4 26.2 9 13 4.6 25.8 9.5 12.9 4.9 25.6 10.1 12.8 5.1 25.3 10.6 12.6 5.5 25 11.2 12.5 5.7 24.7 11.8 12.3 6 24.4 12.3 12.1 6.2 24.1 12.8 11.9 6.5 23.7 13.3 11.8 6.8 23.4 13.9 11.6 7.1 23 14.4 11.4 7.3 22.6 14.8 11.3 7.6 22.3 15.4 11 7.8 21.9 15.8 10.8 8 21.5 16.3 10.6 8.2 21 16.7 10.5 8.5 20.7 17.2 10.2 8.7 20.2 17.6 10 8.9 19.7 18.1 9.8 9.1 19.3 18.4 9.6 9.4 18.9 18.9 9.3 9.5 18.3 19.3 9.1 9.7 17.9 19.6 8.8 9.9 17.4 20 8.6 10.1 16.9 20.4 8.3 10.3 16.4 20.8 8 10.4 15.8 21.1 7.8 10.6 15.3 21.4 7.5 10.8 14.8 21.7 7.2 11 14.2 22.1 6.9 11.1 13.6 22.4 6.7 11.2 13.1 22.6 6.4 11.4 12.5 23 6.1 11.5 11.9 23.2 5.8 11.6 11.3 23.4 5.5 11.9 10.7 23.8 5.1 11.9 10 24 4.9 12 9.5 24.2 4.5 12.2 8.8 24.5 4.2 12.2 8.1 24.6 4 12.4 7.5 24.9 3.6 12.5 6.9 25.1 3.2 12.6 6.1 25.3 3 12.7 5.5 25.5 2.6 12.8 4.8 25.7 2.2 12.9 4.1 25.9 1.9 12.9 3.4 26 1.5 13.1 2.6 26.2 1.2 13.1 2 26.4 0.7 13.2 1.1 26.5 0.4 13.3 0.5 26.6 0 13.4-0.4 26.6-0.3 13.3-1 26.5-0.8 13.1-1.9 26.2-1.1 13.1-2.5 26-1.5 13-3.3 25.9-1.8 12.8-4 25.6-2.2 12.7-4.7 25.3-2.5 12.6-5.4 25.1-2.9 12.5-6.1 24.9-3.2 12.4-6.7 24.6-3.6 12.3-7.4 24.4-3.9 12.1-8.1 24-4.2 12-8.7 23.8-4.5 11.8-9.3 23.5-4.9 11.7-10 23.2-5.1 11.5-10.6 22.8-5.4 11.4-11.1 22.5-5.7 11.2-11.8 22.2-6 11-12.3 21.8-6.3 10.9-12.9 21.5-6.5 10.6-13.4 21.1-6.8 10.4-14 20.7-7.1 10.3-14.4 20.3-7.4 10.1-15.1 20-7.6 9.8-15.5 19.5-7.9 9.6-16 19.1-8.1 9.4-16.5 18.6-8.3 9.3-16.9 18.3-8.6 9-17.5 17.8-8.8 8.8-17.9 17.3-9 8.6-18.3 17-9.2 8.3-18.7 16.4-9.5 8.1-19.2 16-9.7 7.9-19.6 15.5-9.9 7.7-20 15.1-10.1 7.4-20.3 14.6-10.3 7.1-20.8 14-10.5 7-21.1 13.7-10.7 6.6-21.5 13.1-10.9 6.4-21.9 12.6-11 6.2-22.2 12.1-11.2 6-22.5 11.6-11.4 5.7-22.9 11.1-11.5 5.5-23.2 10.6-11.6 5.2-23.5 10.1-11.8 4.9-23.8 9.5-11.9 4.7-24.1 9-12.1 4.4-24.3 8.5-12.3 4.1-24.7 7.9-12.4 3.8-24.9 7.3-12.5 3.6-25.2 6.8-12.6 3.3-25.4 6.2-12.8 2.9-25.6 5.6-12.9 2.6-25.9 5-13 2.3-26.1 4.3-13.1 2.1-26.3 3.8-13.2 1.7-26.5 3-13.3 1.4-26.7 2.4-13.4 1.1-26.8 1.8-13.5 0.7-27 1-13.6 0.4-27.2 0.3-13.6 0-27.3-0.4-13.7-0.3-27.5-1.1-13.7-0.8-27.5-1.9zm-542.9 831.9q-17.4 0-34.7-0.6-17.3-0.6-34.4-1.9-17.2-1.2-34.2-2.9-17-1.8-33.8-4.1-16.9-2.3-33.6-5.2-16.7-2.8-33.1-6.1-16.5-3.4-32.8-7.2-16.3-3.8-32.3-8.2-16-4.3-31.7-9.2-15.7-4.8-31.1-10.1-15.5-5.4-30.5-11.2-15.1-5.9-29.8-12.2-14.7-6.3-29-13.1-14.3-6.8-28.1-14.1-13.9-7.3-27.3-15-13.3-7.7-26.2-15.9-12.9-8.1-25.3-16.7-12.3-8.6-24.1-17.6-11.8-8.9-23-18.2-11.2-9.4-21.8-19.1-10.6-9.6-20.6-19.6-9.9-10-19.2-20.4-9.3-10.3-17.9-20.9-8.5-10.6-16.4-21.6-7.8-10.9-14.8-22.2-7.1-11.3-13.3-22.9-6.2-11.7-11.6-23.7-5.3-12-9.8-24.5-4.4-12.5-7.8-25.5-3.5-13-5.9-26.6-2.4-13.6-3.8-27.8-1.3-14.3-1.5-29.3-0.1-15.1 0.9-30.6 1.1-15.6 3.3-31.6 2.2-16.1 5.6-32.7 3.5-16.7 8.2-33.9 4.6-17.3 10.4-35 5.9-17.9 12.9-36.2 7.1-18.5 15.2-37.4 8.2-19 17.5-38.3 9.3-19.4 19.7-39.2 10.4-19.8 21.8-39.8 11.4-20.2 23.8-40.4 12.5-20.3 25.8-40.6 13.3-20.4 27.5-40.6 14.2-20.3 29.2-40.4 15-20 30.7-39.8 15.8-19.6 32.1-38.9 16.4-19.1 33.3-37.7 16.9-18.5 34.3-36.4 17.4-17.7 35.3-34.7 17.8-16.7 35.9-32.7 18.1-15.7 36.6-30.5 18.3-14.6 37-28.1 18.5-13.4 37.3-25.6 18.6-12 37.4-22.9 18.8-10.6 37.6-20 18.7-9.1 37.5-17 18.7-7.7 37.4-14 18.5-6.2 37.1-11 18.5-4.5 36.9-7.8 18.3-3 36.6-4.7 18.1-1.4 36.2-1.5 17.9 0.2 35.7 1.6 17.7 1.7 34.9 4.7 17 3.1 33.5 7.5 16.4 4.5 32.3 10.1 15.8 5.8 31.1 12.6 15.1 7 29.7 14.9 14.6 8.1 28.6 17.1 13.9 9.1 27.3 19 13.3 10.1 26.1 20.9 12.7 11 24.9 22.6 12.1 11.7 23.7 24.1 11.5 12.5 22.5 25.6 10.9 13.1 21.3 26.8 10.3 13.7 20.1 27.9 9.8 14.3 19 29 9.2 14.7 17.9 29.8 8.6 15.2 16.7 30.6 8.1 15.5 15.7 31.2 7.5 15.7 14.6 31.6 7 16 13.6 32.1 6.5 16 12.6 32.2 6.1 16.2 11.7 32.4 5.6 16.2 10.7 32.5 5.2 16.2 9.8 32.4 4.7 16.1 9 32.2 4.2 16.1 8 32.1 3.8 16 7.1 31.9 3.4 15.8 6.3 31.5 2.8 15.7 5.2 31.3 2.4 15.6 4.2 31 1.9 15.4 3.1 30.7 1.3 15.3 2 30.5 0.7 15.2 0.7 30.3 0 15.1-0.7 29.8-0.7 14.7-2.2 29.1-1.4 14.3-3.6 28.3-2.2 14.1-5.2 27.8-3 13.7-6.7 27.2-3.8 13.5-8.4 26.7-4.6 13.2-9.9 26.2-5.4 13.1-11.6 25.8-6.2 12.9-13.1 25.4-7 12.6-14.8 25-7.7 12.4-16.2 24.4-8.5 12.2-17.8 24-9.2 11.9-19.1 23.4-9.9 11.5-20.5 22.7-10.6 11.2-21.7 22-11.2 10.9-23 21.3-11.7 10.4-24 20.3-12.3 9.9-25.1 19.3-12.8 9.4-26 18.2-13.3 8.9-26.9 17.1-13.7 8.3-27.7 15.9-14 7.6-28.4 14.5-14.4 6.9-29.2 13.2-14.7 6.2-29.8 11.8-15 5.5-30.4 10.4-15.3 4.8-31 8.9-15.6 4.1-31.6 7.5-15.9 3.4-32.1 6.1-16.3 2.7-32.8 4.7-16.5 2-33.3 3.3-16.8 1.3-33.9 2-17.1 0.6-34.5 0.6zm-322.9-1361.6q-16.4-0.1-33-1-16.7-1-33.4-2.7-16.9-1.8-33.8-4.4-17.1-2.7-34.1-6.2-17.2-3.6-34.4-7.9-17.3-4.5-34.6-9.7-17.5-5.3-34.8-11.4-17.5-6.1-34.9-13-17.5-7-34.9-14.7-17.5-7.7-34.8-16.2-17.5-8.5-34.7-17.7-17.4-9.3-34.4-19.2-17.2-10-34-20.5-17-10.6-33.6-21.7-16.6-11.2-32.8-22.8-16.3-11.7-32-23.8-15.8-12.2-31.1-24.7-15.2-12.5-29.8-25.3-14.7-12.8-28.6-25.9-13.9-13.1-27-26.4c-17.6-17.6-33.9-35.4-49-53.4-15-17.7-28.8-35.6-41.1-53.5-12.2-17.6-23-35.2-32.2-52.7-9.2-17.2-16.8-34.3-22.8-51.3q-9-24.9-13.2-49.2-4.2-23.9-3.7-46.9c0.2-15 1.9-29.4 4.9-43.1 2.9-13.3 7.1-26 12.4-38.1 5-11.6 11.1-22.7 18.2-33 6.8-9.9 14.5-19.2 23.1-27.7 8.3-8.1 17.4-15.5 27.2-22.2q14.3-9.3 30.9-16.4 8.1-3.3 16.7-6 8.6-2.6 17.7-4.7 9-1.9 18.5-3.3 9.5-1.2 19.5-1.9 10-0.7 20.5-0.8 10.4-0.1 21.4 0.3 11 0.5 22.5 1.3 11.5 1 23.6 2.2 12 1.3 24.6 2.9 12.6 1.7 25.7 3.5 13.1 1.9 26.8 4 13.7 2.1 27.9 4.3 14.2 2.3 28.9 4.6 14.8 2.3 30 4.7 15.2 2.3 30.9 4.7 15.7 2.4 31.9 4.9 16.1 2.3 32.7 4.8 16.6 2.4 33.5 4.8 17 2.5 34.3 5 17.3 2.4 34.9 5.1 17.6 2.5 35.1 5.2 17.4 2.6 34.7 5.4 17.3 2.7 34.3 5.6 17.1 2.9 33.9 6 16.8 3 33.3 6.3 16.5 3.3 32.8 6.8 16.2 3.5 32.1 7.2 15.8 3.7 31.4 7.7 15.5 4 30.6 8.2 15.1 4.1 29.9 8.6 14.7 4.3 29 8.9 14.3 4.6 28.2 9.4 13.8 4.7 27.2 9.6 13.4 4.9 26.3 9.9 12.8 5 25.2 10.1 12.3 5.1 24.1 10.3 11.7 5.2 22.9 10.5 11.2 5.2 21.7 10.6 10.5 5.3 20.5 10.8 9.8 5.4 19.1 11 18.3 10.9 33.9 22.6 15.4 11.5 28 24 12.4 12.3 21.8 25.9 9.2 13.5 15.3 28.3 6.1 14.8 9.1 31.1 3 16.3 3.1 34.1c0 11.9-0.9 24-2.6 36.2-1.7 12.2-4.2 24.5-7.4 36.9-3.2 12.4-7 24.7-11.5 37.1-4.4 12.2-9.4 24.5-14.9 36.6-5.5 12-11.5 23.9-18.1 35.7q-9.7 17.5-21.1 34.4-5.6 8.4-11.7 16.6-6 8.3-12.5 16.3-6.4 8-13.3 15.8-6.9 7.8-14.2 15.4-7.3 7.6-15.1 14.9-7.8 7.3-16 14.4-8.3 7.1-17 13.9-8.8 6.8-18.1 13.3-9.3 6.5-19.1 12.7-9.9 6.1-20.3 12-10.4 5.8-21.3 11.3-11 5.4-22.5 10.5-11.6 5-23.7 9.6-12.2 4.5-24.9 8.6-12.8 4-26.1 7.6-13.4 3.5-27.3 6.4-14 2.9-28.5 5.1-14.6 2.3-29.7 3.8-15.2 1.5-30.9 2.3-15.9 0.8-32.2 0.8zm-36.7 36.6c-16.5-0.5-50.5-11.3-100.2-31.4-53.4-21.7-116.8-50.3-179.9-80.9-55-27.2-100-52.3-128.8-72.3-15.1-14.2-13.9-23.2 3.2-27.1 25.9-0.3 59.8 2.2 97 5.9 38.6 4.1 76.6 7.8 111.2 10.6 32.2 1.6 60.3 2.2 83.4 2 21.1-1.1 39.2-2 54.5-2 15.3 0 28.3 1.7 39.9 5.2 12.9 4.1 25.1 10.3 36 18.2 11.6 8.2 21 17.7 27.3 27.9 5.2 9.7 7.5 20.2 7.5 31.7 0 11.5-1.1 23.4-3.3 35.1-2.3 11.6-6.6 22.6-12.9 32.2-4.9 10.1-10.1 19.6-15.5 27.6-1.2 9.6-5.3 16.7-19.4 17.3zm188.1 230.4c-8.1 4.8-16.7 7.3-25.9 7.5-9.9-1.1-20.6-4.8-31.9-11-12.3-7.6-25.2-17.9-38.7-30.4-14.4-14-29.3-30.1-44.4-47.8-15.8-18.7-31.6-38.6-47-59.1-15.8-20.9-30.9-41.8-44.7-62.1-13.8-20.1-26.1-39.1-36.2-56.6-9.7-16.8-17-31.8-21.4-44.8-3.6-12.2-4.1-21.9-1.7-29.5 3.2-6.9 9-12.1 17.1-15.8 8.7-3.4 19.2-5.7 31.3-7.1 12.2-1.3 25.5-2 39.5-2.3 13.8-0.5 28-0.6 42.1-0.7 13.8-0.3 27.4-0.6 40.7-0.8 12.8-0.6 25.3-1.2 37.3-1.6 11.8-0.7 23.3-1.1 34.6-1.1 11.3 0 22 0.7 32.2 2q15.6 2.4 29.9 7.3c9.8 3.5 19.1 7.9 27.9 13 8.9 5.3 17.2 11.2 24.8 17.8 7.6 6.5 14.4 13.6 20.4 21 6 7.4 11.1 15.1 15.2 23.3 4.1 7.9 7.3 16.3 9.4 25 2.2 8.7 3.3 17.8 3.3 27.2 0 9.4-1.1 18.9-3.2 28.3-2.1 9.4-5.1 18.9-8.9 28.3-3.7 9.6-8.2 19.2-13.2 28.9-4.8 9.9-10.1 19.9-15.8 29.8-5.3 10.3-10.9 20.7-16.7 30.9-5.5 10.6-11.2 20.9-17.1 30.9-5.7 10.1-11.6 19.7-18 28.3-6.3 8.4-13.3 15.6-20.9 21.2zm-295-968.3c-11.6 2.1-22.8 2.3-33 0.7-10.1-2.3-18.9-7-26.2-14.1-7-7.2-12.6-15.8-16.3-25.3-3.8-8-5.8-17.3-4.9-29.9 0.9-12.9 5.1-30.5 12-51.9 6.9-21.3 15.9-43.8 26.1-64.4 9.3-16.4 19.3-28.5 29.4-35.6 9.3-2.8 19.1-1.8 29.1 2.4 9.6 6.6 18.6 15.3 26.7 25.7 7.8 11.8 14.7 24.8 20.4 38.2 5.8 13.2 10.6 26.2 13.9 38.1 3.4 11.4 5.4 22.2 5.4 32.3 0 10.1-2.1 19.2-6 27.3-4 8.7-9.9 17-17.4 24.5-7.5 8.1-16.6 15.2-26.6 20.8-10 5.3-21 9.1-32.6 11.2zm943.4 733.5h2523.5v880.8h-2523.5zm791.6 124.3q-18.4-3.3-36.3-8.9-17.9-5.7-35.3-13.4-17.3-7.7-34-17.4-16.6-9.6-32.5-21.1-15.9-11.5-30.9-24.5-15-13-29.1-27.5-14.1-14.4-27.2-30-13-15.6-25-32.2-12-16.6-22.8-34.2-10.8-17.5-20.3-36-9.6-18.3-17.7-37.6-8.2-19.2-14.9-39.3-6.7-20.1-11.8-41-5.2-20.9-8.7-42.6-3.5-21.7-5.3-44.1-1.8-22.4-1.8-45.5 0-23 1.8-45.4 1.8-22.4 5.3-44.2 3.5-21.7 8.7-42.7 5.2-21 12.1-41.2 6.8-20.3 15.3-39.8 8.4-19.6 18.5-38.3 10-18.9 21.6-36.8 11.5-18.1 24.5-35.1 13-17.1 27.2-33 14.3-16 29.7-30.7 15.4-14.6 31.8-27.7 16.4-13.1 33.7-24.4 17.3-11.3 35.3-20.8 18-9.4 36.8-16.9 18.8-7.4 38.2-13 19.5-5.4 39.6-9.1 20.1-3.5 39.9-5.1 19.8-1.4 39.1-1.1 19.3 0.6 38.1 3 18.7 2.6 36.6 7.3 17.8 4.9 34.6 12.1 16.7 7.5 32.2 17.4 15.2 10.4 29.1 23.2 13.6 13.4 25.8 29.2 11.8 16.4 22.1 35.1c6.6 12.8 12.7 26.3 18.3 40.5 5.4 14.5 10.3 29.6 14.6 45.2 4.2 15.9 7.8 32.3 11 49.1 3 17 5.5 34.4 7.6 52.1q2.9 26.7 4.3 54.2 1.3 27.6 1.2 55.9-0.3 28.3-2.1 57.3-1.9 29-5.3 57.3-3.4 28.3-8.4 55.9-5 27.7-11.5 54.5-6.5 26.9-14.5 52.8c-5.3 17.3-11.1 34.1-17.3 50.6-6.3 16.4-13 32.3-20.1 47.6-7.1 15.3-14.6 29.9-22.5 43.9-7.9 13.8-16.1 27-24.7 39.4q-12.8 18.3-26.6 34.2-13.8 15.5-28.3 28.6-14.6 12.7-30 22.8-15.3 9.8-31.3 17.1-16.1 6.9-32.8 11.4-16.7 4.3-34 6.1-17.3 1.7-35.2 0.9-18-0.8-36.4-4.1zm1581.8 837.2q-15.5-4.4-30.6-11.3-15.2-6.9-29.8-16.3-14.7-9.4-28.8-21.2-14.1-11.9-27.5-26-13.4-14.1-26.1-30.4-12.6-16.4-24.4-34.6c-7.9-12.1-15.5-24.8-22.7-38-7.2-13.1-14.1-26.6-20.7-40.6q-9.9-20.7-18.7-42.4-8.8-21.2-16.5-43.3-7.7-21.5-14.3-43.6-6.7-21.6-12.1-43.7-2.7-10.9-5.1-21.9-2.5-11-4.6-22.1-2.1-11-3.9-22.2-1.8-11.2-3.2-22.6-1.5-11.4-2.6-23.2-1.1-11.6-1.9-23.8-0.8-12-1.2-24.7-0.4-12.5-0.4-25.8 0-13.2 0.4-26.8 0.4-13.6 1.2-27.6 0.8-14.1 2-28.7 1.2-14.6 2.8-29.7 1.6-15.2 3.6-30.8 1.9-15.7 4.3-32 2.4-16.3 5.1-33 2.7-16.8 5.8-34.1c4.1-23.1 8.7-46.7 13.8-70.6 5-24.1 10.5-48.5 16.4-73 5.9-24.5 12.1-49 18.8-73.5 6.6-24.3 13.7-48.3 21-72 7.3-23.4 14.9-46.3 22.9-68.6 7.8-21.7 16-42.8 24.4-63 8.4-19.5 17.1-38.2 25.9-55.7 8.8-16.9 17.8-32.6 27-47 9.1-13.8 18.4-26.2 27.9-37.3 9.4-10.3 18.9-19.3 28.6-26.8q14.4-10 29.1-15.6 14.6-4.4 29.4-4.3c9.8 1 19.4 3.5 28.7 7.4 9.4 4.6 18.5 10.7 27.3 18.1 8.8 8.1 17.4 17.5 25.8 28.1 8.3 11.3 16.3 23.7 24.1 37.2 7.7 14.2 15.2 29.4 22.4 45.6 7.1 16.8 14 34.5 20.7 53 6.5 19 12.8 38.8 18.9 59.2 6 20.9 11.7 42.3 17.1 64.2 5.4 22.1 10.5 44.7 15.3 67.5 4.8 23 9.3 46.1 13.5 69.4 4.2 23.2 8.1 46.6 11.6 69.8 3.6 23.1 6.8 46.2 9.8 69q2.2 17.1 4.1 34 2 16.9 3.7 33.6 1.7 16.6 3.2 33.1 1.4 16.4 2.6 32.7 1.2 16.2 2.2 32.3 0.9 16.1 1.6 32 0.7 15.9 1.1 31.8 0.4 15.9 0.5 31.7 0.2 15.9 0 31.4-0.1 15.6-0.6 30.8-0.4 15.3-1.1 30.4-0.7 15.1-1.7 30-1 14.9-2.2 29.6-1.3 14.8-2.8 29.4-1.6 14.7-3.4 29.1-1.8 14.5-3.9 28.8c-2.9 19.1-6.1 37.9-9.6 56.2-3.6 18.5-7.6 36.4-11.9 53.8-4.3 17.4-9.1 34.2-14.2 50.2-5.1 16-10.6 31.2-16.5 45.6-5.9 14.2-12.1 27.5-18.7 39.8q-10 18.2-20.9 33.4-11.1 14.8-23 26.5-12 11.3-24.8 19.6-12.9 7.8-26.5 12.7-13.7 4.6-28 6.3-14.4 1.4-29.3 0.2-15-1.5-30.4-5.7zm9.9-936.8c-10 0-19.8-1.8-29.2-5.1-9.4-3.3-18.5-8.2-27.2-14.6-8.6-6.3-16.9-14-24.6-23-7.7-9.1-14.8-19.3-21.4-30.7-6.5-11.3-12.5-23.7-17.7-37.1-5.2-13.3-9.7-27.6-13.3-42.6q-2.8-11.3-4.9-23.1-2.1-11.8-3.6-24-1.4-12.3-2.2-25-0.7-12.6-0.7-25.6 0-13 0.7-25.7 0.8-12.7 2.2-24.9 1.5-12.3 3.6-24.1 2.1-11.8 4.9-23c3.7-15 8.3-29.3 13.7-42.5 5.4-13.3 11.6-25.7 18.6-36.9 7.1-11.2 14.9-21.3 23.4-30.1 8.5-8.8 17.7-16.4 27.5-22.6 9.8-6.4 20-11.3 30.6-14.7 10.5-3.5 21.3-5.5 32.3-5.4q16.3 0.1 31.6 7 15.2 7.6 29.6 23c9.7 11 19.3 24.8 28.6 41.2 9.5 17.1 18.7 36.5 27.6 57.8 8.9 21.5 17.4 44.2 25 67.4 7.5 22.6 14 44.9 19.1 66.2 2.5 10.1 4.6 19.9 6.3 29.3q2.4 13.4 3.5 25.4 0.9 11.4 0.5 21.1-0.5 9.3-2.4 17c-1.4 4.9-3.1 9.3-5.2 13.2-2.1 3.7-4.6 7.1-7.3 10.3-2.7 3.1-5.7 6-8.9 8.7q-4.7 4.3-10 8.4c-6.8 6.1-14.1 12.3-21.8 18.6-7.3 7.3-15 14.8-22.9 22.3-7.7 8.2-15.7 16.2-24 23.7-8.1 7.8-16.6 14.9-25.4 20.8-8.7 6.1-17.9 10.9-27.3 14.2-9.5 3.3-19.3 5.1-29.3 5.1zm-657 405.1q-16.3 0-32.6-0.4-16.2-0.3-32.4-1-16.2-0.7-32.3-1.7-16.2-1-32.4-2.3-16.2-1.4-32.5-3.1-16.3-1.6-32.7-3.6-16.4-2.1-32.9-4.4-16.6-2.3-33.3-5-16.8-2.6-33.7-5.5-17-3-34.1-6.3-17.3-3.2-34.6-6.8-17.5-3.5-35.1-7.4-17.7-3.8-35.5-8-17.9-4.1-35.9-8.6-18.1-4.4-36.1-9.1-18.3-4.7-36.4-9.7c-24.4-6.7-48.5-13.8-72.3-21.2-24-7.5-47.5-15.3-70.3-23.5-22.9-8.3-44.9-16.9-65.9-25.8-21-9.1-40.7-18.4-58.9-28.1-18-9.8-34.4-19.8-49.1-30-14.1-10.3-26.3-20.8-36.4-31.5-9.5-10.6-16.8-21.4-21.7-32.1-4.2-10.8-6-21.4-5.3-31.9 1.4-10.4 5.3-20.4 11.3-29.8 6.7-9.3 15.4-18 26.1-26.2 11-7.9 23.7-15.2 38-21.9 14.4-6.5 30.1-12.4 46.9-17.7 16.7-5.2 34.4-9.7 52.8-13.8 18.1-3.8 36.8-7.3 56-10.3 18.7-2.9 37.7-5.6 56.9-7.9 18.7-2.3 37.5-4.4 56.3-6.4q13.8-1.6 27.6-3.1 13.6-1.5 27.2-3 13.4-1.6 26.8-3.2 13.2-1.7 26.5-3.5 13.1-1.8 26.2-3.8 13-2 26.1-4.2 13-2.3 26.2-4.7 13.1-2.5 26.4-5.3 13.3-2.8 26.9-5.8 13.6-3.1 27.6-6.4 14-3.4 28.5-7.1 14.5-3.7 29.6-7.7 15.1-4.1 31-8.5 15.9-4.4 32.5-9.2 16.7-4.8 34.2-10 17.7-5.2 36.1-10.9 18.6-5.7 37.6-11.7 19.1-6.1 38.6-12.5 19.6-6.5 39.5-13.3 20-6.9 40.2-14.2 20.4-7.3 40.9-15.1 20.5-7.8 41.2-16 20.6-8.4 41.3-17.1 20.7-8.8 41.2-18 20.5-9.3 40.8-19 20.3-9.7 40.2-19.8 19.8-10.1 39.2-20.4 19.3-10.4 38.1-21 18.7-10.6 36.7-21.3 17.9-10.7 35.1-21.3 17-10.5 33.2-20.9 16.1-10.3 31.3-20.2c20-13 38.7-25.3 56.2-36.7 17-10.8 32.8-20.4 47.1-28.7 14-7.3 26.6-13.1 37.8-17 10.8-2.8 20.3-3.6 28.4-2.2 7.8 2.8 14.3 7.9 19.5 15.4q7.4 13.5 11 34.4 3.2 23.1 2.8 53.6c-0.4 21.5-2 45.3-4.8 71.2-2.9 26.9-6.9 55-12 83.9-5.1 29.4-11.2 59.4-18.2 89.5-7 30.2-15 60.4-23.8 90.1-8.8 29.4-18.5 58.2-29 86.2-10.4 27.3-21.6 53.6-33.6 78.8-11.9 24.4-24.5 47.5-37.8 69.2-13.3 20.9-27.2 40.4-41.7 58.5q-21.7 25.8-45.2 47.5-11.6 10.5-23.7 20-12.1 9.2-24.5 17.5-12.5 8-25.2 15.2-12.8 7-25.9 13.3-13.1 6-26.5 11.3-13.4 5.2-27.2 9.8-13.7 4.4-27.7 8.2-14 3.8-28.2 7-14.3 3.1-28.8 5.8-14.5 2.6-29.3 4.8-14.8 2.2-29.8 4-15 1.7-30.3 3.1-15.2 1.4-30.7 2.4-15.5 1-31.3 1.7-15.7 0.7-31.7 1-16 0.4-32.3 0.4zm-2797.3-1236.2l83.2-16.3 7.5 38.2-83.3 16.2z"/>
	<path id="Lines" class="s2" d="m2525.9 1984.1h127.2l293 436.5h-127.2zm240.2 0h127.2l292.9 436.4h-127.1zm241.4 0h127.1l293 436.5h-127.2z"/>
	<path id="Sift" class="s3" d="m121.4 2524.7c0-16.2 6.5-31 17.2-41.6 10.7-10.7 25.4-17.3 41.6-17.3 0 0 4.6 0 13.3 0 8.8 0 21.8 0 38.8 0q12.8 0 28.5 0 15.6 0 34.1 0 18.5 0 39.7 0 21.2 0 45 0 11.9 0 24.4 0 12.5 0 25.7 0 13.1 0 26.9 0 13.7 0 28 0 14.4 0 29.3 0 14.9 0 30.4 0 15.5 0 31.5 0 16 0 32.6 0 16.6 0 33.7 0 17 0 34.6 0 17.6 0 35.7 0 18.1 0 36.7 0 18.6 0 37.7 0 19 0 38.5 0 19.6 0 39.5 0 20 0 40.4 0 20.4 0 41.2 0 20.8 0 42 0 21.2 0 42.8 0 21.6 0 43.6 0 22 0 44.3 0 22.4 0 45.1 0 22.7 0 45.7 0 23 0 46.4 0 23.4 0 47 0 11.9 0 23.8 0 11.9 0 23.9 0 12 0 24 0 12.1 0 24.2 0 12.1 0 24.3 0 12.2 0 24.5 0 12.3 0 24.6 0 12.3 0 24.7 0 12.4 0 24.9 0 12.4 0 25 0 12.5 0 25 0 12.6 0 25.3 0 12.6 0 25.3 0 12.7 0 25.4 0 12.8 0 25.5 0 12.8 0 25.7 0 12.8 0 25.7 0 12.9 0 25.9 0 12.9 0 25.9 0 13 0 26 0 13 0 26.1 0 13.1 0 26.2 0 13.1 0 26.3 0 13.1 0 26.3 0 13.2 0 26.4 0 13.3 0 26.5 0 13.3 0 26.6 0 13.3 0 26.6 0 13.3 0 26.7 0 13.3 0 26.7 0 13.4 0 26.8 0 13.4 0 26.8 0 13.5 0 26.9 0 13.5 0 26.9 0 13.5 0 27 0 13.5 0 27 0 13.5 0 27 0 13.6 0 27.1 0 13.5 0 27.1 0 13.5 0 27.1 0 13.6 0 27.1 0 13.6 0 27.2 0 13.6 0 27.2 0 13.5 0 27.1 0 13.6 0 27.2 0 13.6 0 27.2 0 13.6 0 27.2 0 13.6 0 27.2 0 13.6 0 27.1 0 13.6 0 27.2 0 13.6 0 27.2 0 13.5 0 27.1 0 13.6 0 27.1 0 13.6 0 27.1 0 13.5 0 27.1 0 13.5 0 27 0 13.5 0 27 0 13.5 0 27 0 13.4 0 26.9 0 13.4 0 26.9 0 13.4 0 26.8 0 13.4 0 26.8 0 13.4 0 26.7 0 13.4 0 26.7 0 13.3 0 26.6 0 13.3 0 26.6 0 13.2 0 26.5 0 13.2 0 26.4 0 13.2 0 26.3 0 13.2 0 26.3 0 13.1 0 26.2 0 13.1 0 26.1 0 13 0 26 0 13 0 25.9 0 13 0 25.9 0 12.9 0 25.7 0 12.9 0 25.6 0 12.8 0 25.6 0 12.7 0 25.4 0 12.7 0 25.3 0 12.7 0 25.3 0 12.5 0 25 0 12.6 0 25 0 12.5 0 24.9 0 12.4 0 24.7 0 12.3 0 24.6 0 12.3 0 24.5 0 12.2 0 24.3 0 12.1 0 24.2 0 12 0 24 0 12 0 23.9 0 11.9 0 23.8 0 23.6 0 47 0 23.4 0 46.4 0 23 0 45.7 0 22.7 0 45.1 0 22.3 0 44.3 0 22 0 43.6 0 21.6 0 42.8 0 21.2 0 42 0 20.8 0 41.2 0 20.4 0 40.4 0 19.9 0 39.5 0 19.5 0 38.5 0 19.1 0 37.7 0 18.6 0 36.7 0 18.1 0 35.7 0 17.6 0 34.6 0 17.1 0 33.7 0 16.6 0 32.6 0 16 0 31.5 0 15.5 0 30.4 0 14.9 0 29.3 0 14.3 0 28 0 13.8 0 26.9 0 13.2 0 25.7 0 12.5 0 24.4 0 23.8 0 45 0 21.2 0 39.7 0 18.5 0 34.1 0 15.7 0 28.5 0c17 0 30 0 38.8 0 8.7 0 13.3 0 13.3 0 16.2 0 30.9 6.6 41.6 17.3 10.7 10.6 17.2 25.4 17.2 41.6 0 0 0 7.4 0 20.4 0 6.4 0 14.3 0 23.3 0 9 0 19.2 0 30.3 0 11.1 0 23.1 0 35.8 0 12.7 0 26.1 0 40 0 13.8 0 28.2 0 42.7 0 14.6 0 29.4 0 44.2 0 14.7 0 29.5 0 44.1 0 14.6 0 28.9 0 42.8 0 13.8 0 27.2 0 39.9 0 12.7 0 24.8 0 35.9 0 11 0 21.2 0 30.2 0 9 0 16.9 0 23.4 0 12.9 0 20.3 0 20.3 0 8.1-1.6 16.2-4.6 23.8-3 7.6-7.3 14.8-12.6 21.2-5.3 6.4-11.7 11.9-18.7 16.3-7.1 4.4-14.8 7.5-22.9 9.1 0 0-4.6 0.9-13.3 2.6-8.8 1.7-21.8 4.2-38.8 7.4q-12.8 2.5-28.5 5.4-15.6 3-34.1 6.5-18.5 3.4-39.7 7.3-21.2 3.9-45 8.3-11.9 2.1-24.4 4.4-12.5 2.2-25.7 4.6-13.1 2.3-26.9 4.7-13.7 2.4-28 4.9-14.4 2.5-29.3 5.1-14.9 2.6-30.4 5.2-15.5 2.6-31.5 5.3-16 2.7-32.6 5.4-16.6 2.7-33.7 5.5-17 2.7-34.6 5.5-17.6 2.8-35.7 5.7-18.1 2.8-36.7 5.6-18.6 2.9-37.7 5.7-19 2.9-38.5 5.8-19.6 2.8-39.5 5.7-20 2.8-40.4 5.7-20.4 2.8-41.2 5.7-20.8 2.8-42 5.6-21.2 2.8-42.8 5.6-21.6 2.8-43.6 5.5-22 2.8-44.3 5.5-22.4 2.7-45.1 5.3-22.7 2.7-45.7 5.3-23 2.6-46.4 5.1-11.7 1.3-23.4 2.5-11.8 1.3-23.6 2.5-11.9 1.2-23.8 2.5-11.9 1.2-23.9 2.4-12 1.2-24 2.4-12.1 1.1-24.2 2.3-12.1 1.1-24.3 2.3-12.2 1.1-24.5 2.3-12.3 1.1-24.6 2.2-12.3 1.1-24.7 2.1-12.4 1.1-24.9 2.2-12.4 1-25 2-12.5 1.1-25 2.1-12.6 1-25.3 2-12.6 1-25.3 1.9-12.7 1-25.4 1.9-12.8 0.9-25.6 1.8-12.7 0.9-25.6 1.8-12.8 0.9-25.7 1.8-12.9 0.8-25.9 1.7-12.9 0.8-25.9 1.6-13 0.8-26 1.6-13 0.7-26.1 1.5-13.1 0.7-26.2 1.4-13.1 0.8-26.3 1.5-13.1 0.6-26.3 1.3-13.2 0.7-26.4 1.3-13.3 0.6-26.5 1.2-13.3 0.6-26.6 1.2-13.3 0.6-26.6 1.1-13.3 0.6-26.7 1.1-13.3 0.5-26.7 1-13.4 0.5-26.8 0.9-13.4 0.5-26.8 0.9-13.5 0.4-26.9 0.8-13.5 0.4-26.9 0.8-13.5 0.3-27 0.7-13.5 0.3-27 0.6-13.5 0.3-27 0.6-13.6 0.3-27.1 0.5-13.5 0.2-27.1 0.4-13.5 0.2-27.1 0.4-13.6 0.2-27.1 0.3-13.6 0.2-27.2 0.3-13.6 0.1-27.2 0.2-13.5 0.1-27.1 0.1-13.6 0.1-27.2 0.1-13.6 0-27.2 0-13.6 0-27.2-0.1-13.6 0-27.2-0.1-13.6-0.1-27.1-0.2-13.6-0.1-27.2-0.2-13.6-0.2-27.2-0.3-13.5-0.2-27.1-0.4-13.6-0.2-27.1-0.4-13.6-0.3-27.1-0.5-13.5-0.3-27.1-0.6-13.5-0.3-27-0.6-13.5-0.3-27-0.7-13.5-0.4-27-0.7-13.4-0.4-26.9-0.8-13.4-0.5-26.9-0.9-13.4-0.5-26.8-0.9-13.4-0.5-26.8-1-13.4-0.5-26.7-1.1-13.4-0.5-26.7-1.1-13.3-0.5-26.6-1.1-13.3-0.6-26.6-1.3-13.2-0.6-26.5-1.2-13.2-0.7-26.4-1.4-13.2-0.7-26.3-1.4-13.2-0.7-26.3-1.4-13.1-0.8-26.2-1.5-13.1-0.8-26.1-1.6-13-0.8-26-1.6-13-0.8-25.9-1.7-13-0.8-25.9-1.7-12.9-0.9-25.7-1.8-12.9-0.9-25.7-1.8-12.7-0.9-25.5-1.9-12.7-0.9-25.4-1.9-12.7-1-25.3-2-12.7-1-25.3-2-12.5-1-25-2.1-12.6-1-25-2.1-12.5-1-24.9-2.1-12.4-1.1-24.7-2.2-12.3-1.1-24.6-2.3-12.3-1.1-24.5-2.2-12.2-1.2-24.3-2.4-12.1-1.1-24.2-2.3-12-1.2-24-2.4-12-1.2-23.9-2.4-11.9-1.3-23.8-2.5-11.8-1.3-23.6-2.5-11.7-1.3-23.4-2.5-23.4-2.6-46.4-5.2-23-2.6-45.7-5.3-22.7-2.6-45.1-5.3-22.3-2.7-44.3-5.5-22-2.7-43.6-5.5-21.6-2.8-42.8-5.6-21.2-2.8-42-5.6-20.8-2.8-41.2-5.6-20.4-2.9-40.4-5.7-19.9-2.9-39.5-5.7-19.5-2.9-38.5-5.7-19.1-2.8-37.7-5.6-18.6-2.9-36.7-5.7-18.1-2.8-35.7-5.5-17.6-2.8-34.6-5.5-17.1-2.8-33.7-5.5-16.6-2.7-32.6-5.3-16-2.7-31.5-5.2-15.5-2.6-30.4-5.2-14.9-2.5-29.3-4.9-14.3-2.5-28-4.9-13.8-2.4-26.9-4.7-13.2-2.3-25.7-4.5-12.5-2.2-24.4-4.3-23.8-4.3-45-8.1-21.2-3.9-39.7-7.3-18.5-3.4-34.1-6.3-15.7-2.9-28.5-5.3c-17-3.2-30-5.6-38.8-7.3-8.7-1.7-13.3-2.5-13.3-2.5-8.1-1.6-15.8-4.7-22.9-9.1-7-4.3-13.4-9.8-18.7-16.2-5.3-6.3-9.6-13.5-12.6-21.1-3-7.6-4.6-15.7-4.6-23.8 0 0 0-7.4 0-20.3 0-6.5 0-14.4 0-23.4 0-9 0-19.2 0-30.2 0-11.1 0-23.2 0-35.9 0-12.7 0-26.1 0-39.9 0-13.9 0-28.2 0-42.8 0-14.6 0-29.4 0-44.1 0-14.8 0-29.6 0-44.2 0-14.5 0-28.9 0-42.7 0-13.9 0-27.3 0-40 0-12.7 0-24.7 0-35.8 0-11.1 0-21.3 0-30.3 0-9 0-16.9 0-23.3 0-13 0-20.4 0-20.4zm-102.5-89c0-27.6 22.4-50 50-50h4862.2c27.6 0 50 22.4 50 50v114.3c0 27.6-22.4 50-50 50h-4862.2c-27.6 0-50-22.4-50-50zm0 471c0-27.6 22.4-50 50-50h4862.2c27.6 0 50 22.4 50 50v114.3c0 27.6-22.4 50-50 50h-4862.2c-27.6 0-50-22.4-50-50z"/>
</svg>