<svg version="1.2" xmlns="http://www.w3.org/2000/svg" viewBox="0 0 5000 5000" width="5000" height="5000">
	<title>logo_final_white</title>
	<style>
		tspan { white-space:pre } 
		.t0 { font-size: 100px;line-height: 84px;fill: #ffffff;font-weight: 400;font-family: "DejaVuSans", "DejaVu Sans" } 
		.s1 { fill-opacity: 1;fill: #ffffff } 
		.s2 { fill: #000000;stroke: #ffffff;stroke-linejoin: round;stroke-width: 60 } 
	</style>
	<g id="Folder 1">
		<text id="0 1 " style="transform: matrix(1,0,0,1,1126,3164)" >
			<tspan x="0" y="0" class="t0">0</tspan><tspan  y="0" class="t0">
</tspan>
			<tspan x="0" y="84" class="t0">1</tspan><tspan  y="84" class="t0">
</tspan>
		</text>
		<text id="0 0 " style="transform: matrix(1,0,0,1,1181,3249)" >
			<tspan x="0" y="0" class="t0">0</tspan><tspan  y="0" class="t0">
</tspan>
			<tspan x="0" y="84" class="t0">0</tspan><tspan  y="84" class="t0">
</tspan>
		</text>
		<text id="1 1 0 1" style="transform: matrix(1,0,0,1,1239,3165)" >
			<tspan x="0" y="0" class="t0">1</tspan><tspan  y="0" class="t0">
</tspan>
			<tspan x="0" y="84" class="t0">1</tspan><tspan  y="84" class="t0">
</tspan>
			<tspan x="0" y="168" class="t0">0</tspan><tspan  y="168" class="t0">
</tspan>
			<tspan x="0" y="252" class="t0">1</tspan><tspan  y="252" class="t0">
</tspan>
		</text>
		<text id="0 1 1 0" style="transform: matrix(1,0,0,1,1296,3249)" >
			<tspan x="0" y="0" class="t0">0</tspan><tspan  y="0" class="t0">
</tspan>
			<tspan x="0" y="84" class="t0">1</tspan><tspan  y="84" class="t0">
</tspan>
			<tspan x="0" y="168" class="t0">1</tspan><tspan  y="168" class="t0">
</tspan>
			<tspan x="0" y="252" class="t0">0</tspan><tspan  y="252" class="t0">
</tspan>
		</text>
		<text id="0 0 1 0 1" style="transform: matrix(1,0,0,1,1353.838,3249.192)" >
			<tspan x="0" y="0" class="t0">0</tspan><tspan  y="0" class="t0">
</tspan>
			<tspan x="0" y="84" class="t0">0</tspan><tspan  y="84" class="t0">
</tspan>
			<tspan x="0" y="168" class="t0">1</tspan><tspan  y="168" class="t0">
</tspan>
			<tspan x="0" y="252" class="t0">0</tspan><tspan  y="252" class="t0">
</tspan>
			<tspan x="0" y="336" class="t0">1
</tspan>
		</text>
		<text id="1 1 0 1 0 1 1" style="transform: matrix(1,0,0,1,1410.838,3248.192)" >
			<tspan x="0" y="0" class="t0">1</tspan><tspan  y="0" class="t0">
</tspan>
			<tspan x="0" y="84" class="t0">1</tspan><tspan  y="84" class="t0">
</tspan>
			<tspan x="0" y="168" class="t0">0</tspan><tspan  y="168" class="t0">
</tspan>
			<tspan x="0" y="252" class="t0">1</tspan><tspan  y="252" class="t0">
</tspan>
			<tspan x="0" y="336" class="t0">0</tspan><tspan  y="336" class="t0">
</tspan>
			<tspan x="0" y="420" class="t0">1</tspan><tspan  y="420" class="t0">
</tspan>
			<tspan x="0" y="504" class="t0">1</tspan><tspan  y="504" class="t0">
</tspan>
		</text>
		<text id="0 0 1 0 0 1 0 0 1 0 1 1 1 0 1 1 " style="transform: matrix(1,0,0,1,1470.838,3248.192)" >
			<tspan x="0" y="0" class="t0">0</tspan><tspan  y="0" class="t0">
</tspan>
			<tspan x="0" y="84" class="t0">0</tspan><tspan  y="84" class="t0">
</tspan>
			<tspan x="0" y="168" class="t0">1</tspan><tspan  y="168" class="t0">
</tspan>
			<tspan x="0" y="252" class="t0">0</tspan><tspan  y="252" class="t0">
</tspan>
			<tspan x="0" y="336" class="t0">0</tspan><tspan  y="336" class="t0">
</tspan>
			<tspan x="0" y="420" class="t0">1</tspan><tspan  y="420" class="t0">
</tspan>
			<tspan x="0" y="504" class="t0">0</tspan><tspan  y="504" class="t0">
</tspan>
			<tspan x="0" y="588" class="t0">0</tspan><tspan  y="588" class="t0">
</tspan>
			<tspan x="0" y="672" class="t0">1</tspan><tspan  y="672" class="t0">
</tspan>
			<tspan x="0" y="756" class="t0">0</tspan><tspan  y="756" class="t0">
</tspan>
			<tspan x="0" y="840" class="t0">1</tspan><tspan  y="840" class="t0">
</tspan>
			<tspan x="0" y="924" class="t0">1</tspan><tspan  y="924" class="t0">
</tspan>
			<tspan x="0" y="1008" class="t0">1</tspan><tspan  y="1008" class="t0">
</tspan>
			<tspan x="0" y="1092" class="t0">0</tspan><tspan  y="1092" class="t0">
</tspan>
			<tspan x="0" y="1176" class="t0">1</tspan><tspan  y="1176" class="t0">
</tspan>
			<tspan x="0" y="1260" class="t0">1</tspan><tspan  y="1260" class="t0">
</tspan>
			<tspan x="0" y="1344" class="t0">0</tspan><tspan  y="1344" class="t0">
</tspan>
		</text>
		<text id="1 0 1 1 1 0 0 0 1 1 1 1 " style="transform: matrix(1,0,0,1,1530.838,3248.192)" >
			<tspan x="0" y="0" class="t0">1</tspan><tspan  y="0" class="t0">
</tspan>
			<tspan x="0" y="84" class="t0">0</tspan><tspan  y="84" class="t0">
</tspan>
			<tspan x="0" y="168" class="t0">1</tspan><tspan  y="168" class="t0">
</tspan>
			<tspan x="0" y="252" class="t0">1</tspan><tspan  y="252" class="t0">
</tspan>
			<tspan x="0" y="336" class="t0">1</tspan><tspan  y="336" class="t0">
</tspan>
			<tspan x="0" y="420" class="t0">0</tspan><tspan  y="420" class="t0">
</tspan>
			<tspan x="0" y="504" class="t0">0</tspan><tspan  y="504" class="t0">
</tspan>
			<tspan x="0" y="588" class="t0">0</tspan><tspan  y="588" class="t0">
</tspan>
			<tspan x="0" y="672" class="t0">1</tspan><tspan  y="672" class="t0">
</tspan>
			<tspan x="0" y="756" class="t0">1</tspan><tspan  y="756" class="t0">
</tspan>
			<tspan x="0" y="840" class="t0">1</tspan><tspan  y="840" class="t0">
</tspan>
			<tspan x="0" y="924" class="t0">1</tspan><tspan  y="924" class="t0">
</tspan>
		</text>
		<text id="1 0 0 0 1 0 0 1 0 0" style="transform: matrix(1,0,0,1,1590.838,3248.192)" >
			<tspan x="0" y="0" class="t0">1</tspan><tspan  y="0" class="t0">
</tspan>
			<tspan x="0" y="84" class="t0">0</tspan><tspan  y="84" class="t0">
</tspan>
			<tspan x="0" y="168" class="t0">0</tspan><tspan  y="168" class="t0">
</tspan>
			<tspan x="0" y="252" class="t0">0</tspan><tspan  y="252" class="t0">
</tspan>
			<tspan x="0" y="336" class="t0">1</tspan><tspan  y="336" class="t0">
</tspan>
			<tspan x="0" y="420" class="t0">0</tspan><tspan  y="420" class="t0">
</tspan>
			<tspan x="0" y="504" class="t0">0</tspan><tspan  y="504" class="t0">
</tspan>
			<tspan x="0" y="588" class="t0">1</tspan><tspan  y="588" class="t0">
</tspan>
			<tspan x="0" y="672" class="t0">0</tspan><tspan  y="672" class="t0">
</tspan>
			<tspan x="0" y="756" class="t0">0</tspan><tspan  y="756" class="t0">
</tspan>
		</text>
		<text id="1 1 1 1 0 1 1 0 " style="transform: matrix(1,0,0,1,1650.838,3248.192)" >
			<tspan x="0" y="0" class="t0">1</tspan><tspan  y="0" class="t0">
</tspan>
			<tspan x="0" y="84" class="t0">1</tspan><tspan  y="84" class="t0">
</tspan>
			<tspan x="0" y="168" class="t0">1</tspan><tspan  y="168" class="t0">
</tspan>
			<tspan x="0" y="252" class="t0">1</tspan><tspan  y="252" class="t0">
</tspan>
			<tspan x="0" y="336" class="t0">0</tspan><tspan  y="336" class="t0">
</tspan>
			<tspan x="0" y="420" class="t0">1</tspan><tspan  y="420" class="t0">
</tspan>
			<tspan x="0" y="504" class="t0">1</tspan><tspan  y="504" class="t0">
</tspan>
			<tspan x="0" y="588" class="t0">0</tspan><tspan  y="588" class="t0">
</tspan>
		</text>
		<text id="0 0 0 1 1 0 " style="transform: matrix(1,0,0,1,1709.838,3248.192)" >
			<tspan x="0" y="0" class="t0">0</tspan><tspan  y="0" class="t0">
</tspan>
			<tspan x="0" y="84" class="t0">0</tspan><tspan  y="84" class="t0">
</tspan>
			<tspan x="0" y="168" class="t0">0</tspan><tspan  y="168" class="t0">
</tspan>
			<tspan x="0" y="252" class="t0">1</tspan><tspan  y="252" class="t0">
</tspan>
			<tspan x="0" y="336" class="t0">1</tspan><tspan  y="336" class="t0">
</tspan>
			<tspan x="0" y="420" class="t0">0</tspan><tspan  y="420" class="t0">
</tspan>
		</text>
		<text id="0 1 1 0 1 0" style="transform: matrix(1,0,0,1,1769.838,3248.192)" >
			<tspan x="0" y="0" class="t0">0</tspan><tspan  y="0" class="t0">
</tspan>
			<tspan x="0" y="84" class="t0">1</tspan><tspan  y="84" class="t0">
</tspan>
			<tspan x="0" y="168" class="t0">1</tspan><tspan  y="168" class="t0">
</tspan>
			<tspan x="0" y="252" class="t0">0</tspan><tspan  y="252" class="t0">
</tspan>
			<tspan x="0" y="336" class="t0">1</tspan><tspan  y="336" class="t0">
</tspan>
			<tspan x="0" y="420" class="t0">0
</tspan>
		</text>
		<text id="0 1 0 1 0" style="transform: matrix(1,0,0,1,1829.838,3248.192)" >
			<tspan x="0" y="0" class="t0">0</tspan><tspan  y="0" class="t0">
</tspan>
			<tspan x="0" y="84" class="t0">1</tspan><tspan  y="84" class="t0">
</tspan>
			<tspan x="0" y="168" class="t0">0</tspan><tspan  y="168" class="t0">
</tspan>
			<tspan x="0" y="252" class="t0">1</tspan><tspan  y="252" class="t0">
</tspan>
			<tspan x="0" y="336" class="t0">0</tspan><tspan  y="336" class="t0">
</tspan>
		</text>
		<text id="0 0 0 0 0" style="transform: matrix(1,0,0,1,1889.838,3248.192)" >
			<tspan x="0" y="0" class="t0">0</tspan><tspan  y="0" class="t0">
</tspan>
			<tspan x="0" y="84" class="t0">0</tspan><tspan  y="84" class="t0">
</tspan>
			<tspan x="0" y="168" class="t0">0</tspan><tspan  y="168" class="t0">
</tspan>
			<tspan x="0" y="252" class="t0">0</tspan><tspan  y="252" class="t0">
</tspan>
			<tspan x="0" y="336" class="t0">0</tspan><tspan  y="336" class="t0">
</tspan>
		</text>
		<text id="1 1 1 0 0 1" style="transform: matrix(1,0,0,1,1949.838,3248.192)" >
			<tspan x="0" y="0" class="t0">1</tspan><tspan  y="0" class="t0">
</tspan>
			<tspan x="0" y="84" class="t0">1</tspan><tspan  y="84" class="t0">
</tspan>
			<tspan x="0" y="168" class="t0">1</tspan><tspan  y="168" class="t0">
</tspan>
			<tspan x="0" y="252" class="t0">0</tspan><tspan  y="252" class="t0">
</tspan>
			<tspan x="0" y="336" class="t0">0</tspan><tspan  y="336" class="t0">
</tspan>
			<tspan x="0" y="420" class="t0">1
</tspan>
		</text>
		<text id="1 1 1 1 0 1 1 " style="transform: matrix(1,0,0,1,2009.838,3248.192)" >
			<tspan x="0" y="0" class="t0">1</tspan><tspan  y="0" class="t0">
</tspan>
			<tspan x="0" y="84" class="t0">1</tspan><tspan  y="84" class="t0">
</tspan>
			<tspan x="0" y="168" class="t0">1</tspan><tspan  y="168" class="t0">
</tspan>
			<tspan x="0" y="252" class="t0">1</tspan><tspan  y="252" class="t0">
</tspan>
			<tspan x="0" y="336" class="t0">0</tspan><tspan  y="336" class="t0">
</tspan>
			<tspan x="0" y="420" class="t0">1</tspan><tspan  y="420" class="t0">
</tspan>
			<tspan x="0" y="504" class="t0">1</tspan><tspan  y="504" class="t0">
</tspan>
		</text>
		<text id="1 0 0 1 0 1 1 0 0 1 0 1" style="transform: matrix(1,0,0,1,2069.838,3248.192)" >
			<tspan x="0" y="0" class="t0">1</tspan><tspan  y="0" class="t0">
</tspan>
			<tspan x="0" y="84" class="t0">0</tspan><tspan  y="84" class="t0">
</tspan>
			<tspan x="0" y="168" class="t0">0</tspan><tspan  y="168" class="t0">
</tspan>
			<tspan x="0" y="252" class="t0">1</tspan><tspan  y="252" class="t0">
</tspan>
			<tspan x="0" y="336" class="t0">0</tspan><tspan  y="336" class="t0">
</tspan>
			<tspan x="0" y="420" class="t0">1</tspan><tspan  y="420" class="t0">
</tspan>
			<tspan x="0" y="504" class="t0">1</tspan><tspan  y="504" class="t0">
</tspan>
			<tspan x="0" y="588" class="t0">0</tspan><tspan  y="588" class="t0">
</tspan>
			<tspan x="0" y="672" class="t0">0</tspan><tspan  y="672" class="t0">
</tspan>
			<tspan x="0" y="756" class="t0">1</tspan><tspan  y="756" class="t0">
</tspan>
			<tspan x="0" y="840" class="t0">0</tspan><tspan  y="840" class="t0">
</tspan>
			<tspan x="0" y="924" class="t0">1
</tspan>
		</text>
		<text id="1 1 0 1 1 0 0 1 0 " style="transform: matrix(1,0,0,1,2129.838,3248.192)" >
			<tspan x="0" y="0" class="t0">1</tspan><tspan  y="0" class="t0">
</tspan>
			<tspan x="0" y="84" class="t0">1</tspan><tspan  y="84" class="t0">
</tspan>
			<tspan x="0" y="168" class="t0">0</tspan><tspan  y="168" class="t0">
</tspan>
			<tspan x="0" y="252" class="t0">1</tspan><tspan  y="252" class="t0">
</tspan>
			<tspan x="0" y="336" class="t0">1</tspan><tspan  y="336" class="t0">
</tspan>
			<tspan x="0" y="420" class="t0">0</tspan><tspan  y="420" class="t0">
</tspan>
			<tspan x="0" y="504" class="t0">0</tspan><tspan  y="504" class="t0">
</tspan>
			<tspan x="0" y="588" class="t0">1</tspan><tspan  y="588" class="t0">
</tspan>
			<tspan x="0" y="672" class="t0">0</tspan><tspan  y="672" class="t0">
</tspan>
		</text>
		<text id="1 1 1 0 1 0 1 0" style="transform: matrix(1,0,0,1,2189.838,3248.192)" >
			<tspan x="0" y="0" class="t0">1</tspan><tspan  y="0" class="t0">
</tspan>
			<tspan x="0" y="84" class="t0">1</tspan><tspan  y="84" class="t0">
</tspan>
			<tspan x="0" y="168" class="t0">1</tspan><tspan  y="168" class="t0">
</tspan>
			<tspan x="0" y="252" class="t0">0</tspan><tspan  y="252" class="t0">
</tspan>
			<tspan x="0" y="336" class="t0">1</tspan><tspan  y="336" class="t0">
</tspan>
			<tspan x="0" y="420" class="t0">0</tspan><tspan  y="420" class="t0">
</tspan>
			<tspan x="0" y="504" class="t0">1</tspan><tspan  y="504" class="t0">
</tspan>
			<tspan x="0" y="588" class="t0">0</tspan><tspan  y="588" class="t0">
</tspan>
		</text>
		<text id="1 0 1 1 0 1 " style="transform: matrix(1,0,0,1,2249.838,3248.192)" >
			<tspan x="0" y="0" class="t0">1</tspan><tspan  y="0" class="t0">
</tspan>
			<tspan x="0" y="84" class="t0">0</tspan><tspan  y="84" class="t0">
</tspan>
			<tspan x="0" y="168" class="t0">1</tspan><tspan  y="168" class="t0">
</tspan>
			<tspan x="0" y="252" class="t0">1</tspan><tspan  y="252" class="t0">
</tspan>
			<tspan x="0" y="336" class="t0">0</tspan><tspan  y="336" class="t0">
</tspan>
			<tspan x="0" y="420" class="t0">1</tspan><tspan  y="420" class="t0">
</tspan>
		</text>
		<text id="1 1 1 1 1 0" style="transform: matrix(1,0,0,1,2309.838,3248.192)" >
			<tspan x="0" y="0" class="t0">1</tspan><tspan  y="0" class="t0">
</tspan>
			<tspan x="0" y="84" class="t0">1</tspan><tspan  y="84" class="t0">
</tspan>
			<tspan x="0" y="168" class="t0">1</tspan><tspan  y="168" class="t0">
</tspan>
			<tspan x="0" y="252" class="t0">1</tspan><tspan  y="252" class="t0">
</tspan>
			<tspan x="0" y="336" class="t0">1</tspan><tspan  y="336" class="t0">
</tspan>
			<tspan x="0" y="420" class="t0">0</tspan><tspan  y="420" class="t0">
</tspan>
		</text>
		<text id="1 0 0 1 1" style="transform: matrix(1,0,0,1,2369.838,3248.192)" >
			<tspan x="0" y="0" class="t0">1</tspan><tspan  y="0" class="t0">
</tspan>
			<tspan x="0" y="84" class="t0">0</tspan><tspan  y="84" class="t0">
</tspan>
			<tspan x="0" y="168" class="t0">0</tspan><tspan  y="168" class="t0">
</tspan>
			<tspan x="0" y="252" class="t0">1</tspan><tspan  y="252" class="t0">
</tspan>
			<tspan x="0" y="336" class="t0">1</tspan><tspan  y="336" class="t0">
</tspan>
		</text>
		<text id="1 1 0 1 0" style="transform: matrix(1,0,0,1,2429.838,3248.192)" >
			<tspan x="0" y="0" class="t0">1</tspan><tspan  y="0" class="t0">
</tspan>
			<tspan x="0" y="84" class="t0">1</tspan><tspan  y="84" class="t0">
</tspan>
			<tspan x="0" y="168" class="t0">0</tspan><tspan  y="168" class="t0">
</tspan>
			<tspan x="0" y="252" class="t0">1</tspan><tspan  y="252" class="t0">
</tspan>
			<tspan x="0" y="336" class="t0">0</tspan><tspan  y="336" class="t0">
</tspan>
		</text>
		<text id="1 1 1 0 0" style="transform: matrix(1,0,0,1,2489.838,3248.192)" >
			<tspan x="0" y="0" class="t0">1</tspan><tspan  y="0" class="t0">
</tspan>
			<tspan x="0" y="84" class="t0">1</tspan><tspan  y="84" class="t0">
</tspan>
			<tspan x="0" y="168" class="t0">1</tspan><tspan  y="168" class="t0">
</tspan>
			<tspan x="0" y="252" class="t0">0</tspan><tspan  y="252" class="t0">
</tspan>
			<tspan x="0" y="336" class="t0">0</tspan><tspan  y="336" class="t0">
</tspan>
		</text>
		<text id="1 1 1 0 1" style="transform: matrix(1,0,0,1,2549.838,3248.192)" >
			<tspan x="0" y="0" class="t0">1</tspan><tspan  y="0" class="t0">
</tspan>
			<tspan x="0" y="84" class="t0">1</tspan><tspan  y="84" class="t0">
</tspan>
			<tspan x="0" y="168" class="t0">1</tspan><tspan  y="168" class="t0">
</tspan>
			<tspan x="0" y="252" class="t0">0</tspan><tspan  y="252" class="t0">
</tspan>
			<tspan x="0" y="336" class="t0">1</tspan><tspan  y="336" class="t0">
</tspan>
		</text>
		<text id="1 0 1 0 1 0" style="transform: matrix(1,0,0,1,2609.838,3248.192)" >
			<tspan x="0" y="0" class="t0">1</tspan><tspan  y="0" class="t0">
</tspan>
			<tspan x="0" y="84" class="t0">0</tspan><tspan  y="84" class="t0">
</tspan>
			<tspan x="0" y="168" class="t0">1</tspan><tspan  y="168" class="t0">
</tspan>
			<tspan x="0" y="252" class="t0">0</tspan><tspan  y="252" class="t0">
</tspan>
			<tspan x="0" y="336" class="t0">1</tspan><tspan  y="336" class="t0">
</tspan>
			<tspan x="0" y="420" class="t0">0</tspan><tspan  y="420" class="t0">
</tspan>
		</text>
		<text id="1 0 1 1 1 1 0" style="transform: matrix(1,0,0,1,2669.838,3248.192)" >
			<tspan x="0" y="0" class="t0">1</tspan><tspan  y="0" class="t0">
</tspan>
			<tspan x="0" y="84" class="t0">0</tspan><tspan  y="84" class="t0">
</tspan>
			<tspan x="0" y="168" class="t0">1</tspan><tspan  y="168" class="t0">
</tspan>
			<tspan x="0" y="252" class="t0">1</tspan><tspan  y="252" class="t0">
</tspan>
			<tspan x="0" y="336" class="t0">1</tspan><tspan  y="336" class="t0">
</tspan>
			<tspan x="0" y="420" class="t0">1</tspan><tspan  y="420" class="t0">
</tspan>
			<tspan x="0" y="504" class="t0">0</tspan><tspan  y="504" class="t0">
</tspan>
		</text>
		<text id="1 1 1 0 1 0 1 0" style="transform: matrix(1,0,0,1,2729.838,3248.192)" >
			<tspan x="0" y="0" class="t0">1</tspan><tspan  y="0" class="t0">
</tspan>
			<tspan x="0" y="84" class="t0">1</tspan><tspan  y="84" class="t0">
</tspan>
			<tspan x="0" y="168" class="t0">1</tspan><tspan  y="168" class="t0">
</tspan>
			<tspan x="0" y="252" class="t0">0</tspan><tspan  y="252" class="t0">
</tspan>
			<tspan x="0" y="336" class="t0">1</tspan><tspan  y="336" class="t0">
</tspan>
			<tspan x="0" y="420" class="t0">0</tspan><tspan  y="420" class="t0">
</tspan>
			<tspan x="0" y="504" class="t0">1</tspan><tspan  y="504" class="t0">
</tspan>
			<tspan x="0" y="588" class="t0">0</tspan><tspan  y="588" class="t0">
</tspan>
		</text>
		<text id="1 0 0 0 0 1 1 0 1 0" style="transform: matrix(1,0,0,1,2789.838,3248.192)" >
			<tspan x="0" y="0" class="t0">1</tspan><tspan  y="0" class="t0">
</tspan>
			<tspan x="0" y="84" class="t0">0</tspan><tspan  y="84" class="t0">
</tspan>
			<tspan x="0" y="168" class="t0">0</tspan><tspan  y="168" class="t0">
</tspan>
			<tspan x="0" y="252" class="t0">0</tspan><tspan  y="252" class="t0">
</tspan>
			<tspan x="0" y="336" class="t0">0</tspan><tspan  y="336" class="t0">
</tspan>
			<tspan x="0" y="420" class="t0">1</tspan><tspan  y="420" class="t0">
</tspan>
			<tspan x="0" y="504" class="t0">1</tspan><tspan  y="504" class="t0">
</tspan>
			<tspan x="0" y="588" class="t0">0</tspan><tspan  y="588" class="t0">
</tspan>
			<tspan x="0" y="672" class="t0">1</tspan><tspan  y="672" class="t0">
</tspan>
			<tspan x="0" y="756" class="t0">0</tspan><tspan  y="756" class="t0">
</tspan>
		</text>
		<text id="1 0 1 1 0 0 0 1 0 1 1 0 0 1 1" style="transform: matrix(1,0,0,1,2849.838,3248.192)" >
			<tspan x="0" y="0" class="t0">1</tspan><tspan  y="0" class="t0">
</tspan>
			<tspan x="0" y="84" class="t0">0</tspan><tspan  y="84" class="t0">
</tspan>
			<tspan x="0" y="168" class="t0">1</tspan><tspan  y="168" class="t0">
</tspan>
			<tspan x="0" y="252" class="t0">1</tspan><tspan  y="252" class="t0">
</tspan>
			<tspan x="0" y="336" class="t0">0</tspan><tspan  y="336" class="t0">
</tspan>
			<tspan x="0" y="420" class="t0">0</tspan><tspan  y="420" class="t0">
</tspan>
			<tspan x="0" y="504" class="t0">0</tspan><tspan  y="504" class="t0">
</tspan>
			<tspan x="0" y="588" class="t0">1</tspan><tspan  y="588" class="t0">
</tspan>
			<tspan x="0" y="672" class="t0">0</tspan><tspan  y="672" class="t0">
</tspan>
			<tspan x="0" y="756" class="t0">1</tspan><tspan  y="756" class="t0">
</tspan>
			<tspan x="0" y="840" class="t0">1</tspan><tspan  y="840" class="t0">
</tspan>
			<tspan x="0" y="924" class="t0">0</tspan><tspan  y="924" class="t0">
</tspan>
			<tspan x="0" y="1008" class="t0">0</tspan><tspan  y="1008" class="t0">
</tspan>
			<tspan x="0" y="1092" class="t0">1</tspan><tspan  y="1092" class="t0">
</tspan>
			<tspan x="0" y="1176" class="t0">1</tspan><tspan  y="1176" class="t0">
</tspan>
		</text>
		<text id="1 1 0 0 1 0 0 0 1 0 1 1 " style="transform: matrix(1,0,0,1,2909.838,3248.192)" >
			<tspan x="0" y="0" class="t0">1</tspan><tspan  y="0" class="t0">
</tspan>
			<tspan x="0" y="84" class="t0">1</tspan><tspan  y="84" class="t0">
</tspan>
			<tspan x="0" y="168" class="t0">0</tspan><tspan  y="168" class="t0">
</tspan>
			<tspan x="0" y="252" class="t0">0</tspan><tspan  y="252" class="t0">
</tspan>
			<tspan x="0" y="336" class="t0">1</tspan><tspan  y="336" class="t0">
</tspan>
			<tspan x="0" y="420" class="t0">0</tspan><tspan  y="420" class="t0">
</tspan>
			<tspan x="0" y="504" class="t0">0</tspan><tspan  y="504" class="t0">
</tspan>
			<tspan x="0" y="588" class="t0">0</tspan><tspan  y="588" class="t0">
</tspan>
			<tspan x="0" y="672" class="t0">1</tspan><tspan  y="672" class="t0">
</tspan>
			<tspan x="0" y="756" class="t0">0</tspan><tspan  y="756" class="t0">
</tspan>
			<tspan x="0" y="840" class="t0">1</tspan><tspan  y="840" class="t0">
</tspan>
			<tspan x="0" y="924" class="t0">1</tspan><tspan  y="924" class="t0">
</tspan>
		</text>
		<text id="1 1 1 0 1 1 1 " style="transform: matrix(1,0,0,1,2969.838,3248.192)" >
			<tspan x="0" y="0" class="t0">1</tspan><tspan  y="0" class="t0">
</tspan>
			<tspan x="0" y="84" class="t0">1</tspan><tspan  y="84" class="t0">
</tspan>
			<tspan x="0" y="168" class="t0">1</tspan><tspan  y="168" class="t0">
</tspan>
			<tspan x="0" y="252" class="t0">0</tspan><tspan  y="252" class="t0">
</tspan>
			<tspan x="0" y="336" class="t0">1</tspan><tspan  y="336" class="t0">
</tspan>
			<tspan x="0" y="420" class="t0">1</tspan><tspan  y="420" class="t0">
</tspan>
			<tspan x="0" y="504" class="t0">1</tspan><tspan  y="504" class="t0">
</tspan>
		</text>
		<text id="1 0 1 0 0 0" style="transform: matrix(1,0,0,1,3029.838,3248.192)" >
			<tspan x="0" y="0" class="t0">1</tspan><tspan  y="0" class="t0">
</tspan>
			<tspan x="0" y="84" class="t0">0</tspan><tspan  y="84" class="t0">
</tspan>
			<tspan x="0" y="168" class="t0">1</tspan><tspan  y="168" class="t0">
</tspan>
			<tspan x="0" y="252" class="t0">0</tspan><tspan  y="252" class="t0">
</tspan>
			<tspan x="0" y="336" class="t0">0</tspan><tspan  y="336" class="t0">
</tspan>
			<tspan x="0" y="420" class="t0">0</tspan><tspan  y="420" class="t0">
</tspan>
		</text>
		<text id="1 0 0 1 1" style="transform: matrix(1,0,0,1,3089.838,3248.192)" >
			<tspan x="0" y="0" class="t0">1</tspan><tspan  y="0" class="t0">
</tspan>
			<tspan x="0" y="84" class="t0">0</tspan><tspan  y="84" class="t0">
</tspan>
			<tspan x="0" y="168" class="t0">0</tspan><tspan  y="168" class="t0">
</tspan>
			<tspan x="0" y="252" class="t0">1</tspan><tspan  y="252" class="t0">
</tspan>
			<tspan x="0" y="336" class="t0">1</tspan><tspan  y="336" class="t0">
</tspan>
		</text>
		<text id="0 1 1 1 0 1" style="transform: matrix(1,0,0,1,3149.838,3248.192)" >
			<tspan x="0" y="0" class="t0">0</tspan><tspan  y="0" class="t0">
</tspan>
			<tspan x="0" y="84" class="t0">1</tspan><tspan  y="84" class="t0">
</tspan>
			<tspan x="0" y="168" class="t0">1</tspan><tspan  y="168" class="t0">
</tspan>
			<tspan x="0" y="252" class="t0">1</tspan><tspan  y="252" class="t0">
</tspan>
			<tspan x="0" y="336" class="t0">0</tspan><tspan  y="336" class="t0">
</tspan>
			<tspan x="0" y="420" class="t0">1</tspan><tspan  y="420" class="t0">
</tspan>
		</text>
		<text id="0 0 1 1 0 1 0" style="transform: matrix(1,0,0,1,3209.838,3248.192)" >
			<tspan x="0" y="0" class="t0">0</tspan><tspan  y="0" class="t0">
</tspan>
			<tspan x="0" y="84" class="t0">0</tspan><tspan  y="84" class="t0">
</tspan>
			<tspan x="0" y="168" class="t0">1</tspan><tspan  y="168" class="t0">
</tspan>
			<tspan x="0" y="252" class="t0">1</tspan><tspan  y="252" class="t0">
</tspan>
			<tspan x="0" y="336" class="t0">0</tspan><tspan  y="336" class="t0">
</tspan>
			<tspan x="0" y="420" class="t0">1</tspan><tspan  y="420" class="t0">
</tspan>
			<tspan x="0" y="504" class="t0">0</tspan><tspan  y="504" class="t0">
</tspan>
		</text>
		<text id="1 0 0 0 1 0 1 0 1 0 " style="transform: matrix(1,0,0,1,3269.838,3248.192)" >
			<tspan x="0" y="0" class="t0">1</tspan><tspan  y="0" class="t0">
</tspan>
			<tspan x="0" y="84" class="t0">0</tspan><tspan  y="84" class="t0">
</tspan>
			<tspan x="0" y="168" class="t0">0</tspan><tspan  y="168" class="t0">
</tspan>
			<tspan x="0" y="252" class="t0">0</tspan><tspan  y="252" class="t0">
</tspan>
			<tspan x="0" y="336" class="t0">1</tspan><tspan  y="336" class="t0">
</tspan>
			<tspan x="0" y="420" class="t0">0</tspan><tspan  y="420" class="t0">
</tspan>
			<tspan x="0" y="504" class="t0">1</tspan><tspan  y="504" class="t0">
</tspan>
			<tspan x="0" y="588" class="t0">0</tspan><tspan  y="588" class="t0">
</tspan>
			<tspan x="0" y="672" class="t0">1</tspan><tspan  y="672" class="t0">
</tspan>
			<tspan x="0" y="756" class="t0">0</tspan><tspan  y="756" class="t0">
</tspan>
		</text>
		<text id="1 1 0 1 0 0 0 1 " style="transform: matrix(1,0,0,1,3329.838,3248.192)" >
			<tspan x="0" y="0" class="t0">1</tspan><tspan  y="0" class="t0">
</tspan>
			<tspan x="0" y="84" class="t0">1</tspan><tspan  y="84" class="t0">
</tspan>
			<tspan x="0" y="168" class="t0">0</tspan><tspan  y="168" class="t0">
</tspan>
			<tspan x="0" y="252" class="t0">1</tspan><tspan  y="252" class="t0">
</tspan>
			<tspan x="0" y="336" class="t0">0</tspan><tspan  y="336" class="t0">
</tspan>
			<tspan x="0" y="420" class="t0">0</tspan><tspan  y="420" class="t0">
</tspan>
			<tspan x="0" y="504" class="t0">0</tspan><tspan  y="504" class="t0">
</tspan>
			<tspan x="0" y="588" class="t0">1</tspan><tspan  y="588" class="t0">
</tspan>
		</text>
		<text id="0 0 0 0 1 0 1 " style="transform: matrix(1,0,0,1,3389.838,3248.192)" >
			<tspan x="0" y="0" class="t0">0</tspan><tspan  y="0" class="t0">
</tspan>
			<tspan x="0" y="84" class="t0">0</tspan><tspan  y="84" class="t0">
</tspan>
			<tspan x="0" y="168" class="t0">0</tspan><tspan  y="168" class="t0">
</tspan>
			<tspan x="0" y="252" class="t0">0</tspan><tspan  y="252" class="t0">
</tspan>
			<tspan x="0" y="336" class="t0">1</tspan><tspan  y="336" class="t0">
</tspan>
			<tspan x="0" y="420" class="t0">0</tspan><tspan  y="420" class="t0">
</tspan>
			<tspan x="0" y="504" class="t0">1</tspan><tspan  y="504" class="t0">
</tspan>
		</text>
		<text id="0 0 1 0 1 1" style="transform: matrix(1,0,0,1,3449.838,3248.192)" >
			<tspan x="0" y="0" class="t0">0</tspan><tspan  y="0" class="t0">
</tspan>
			<tspan x="0" y="84" class="t0">0</tspan><tspan  y="84" class="t0">
</tspan>
			<tspan x="0" y="168" class="t0">1</tspan><tspan  y="168" class="t0">
</tspan>
			<tspan x="0" y="252" class="t0">0</tspan><tspan  y="252" class="t0">
</tspan>
			<tspan x="0" y="336" class="t0">1</tspan><tspan  y="336" class="t0">
</tspan>
			<tspan x="0" y="420" class="t0">1</tspan><tspan  y="420" class="t0">
</tspan>
		</text>
		<text id="1 1 0 0 0" style="transform: matrix(1,0,0,1,3509.838,3248.192)" >
			<tspan x="0" y="0" class="t0">1</tspan><tspan  y="0" class="t0">
</tspan>
			<tspan x="0" y="84" class="t0">1</tspan><tspan  y="84" class="t0">
</tspan>
			<tspan x="0" y="168" class="t0">0</tspan><tspan  y="168" class="t0">
</tspan>
			<tspan x="0" y="252" class="t0">0</tspan><tspan  y="252" class="t0">
</tspan>
			<tspan x="0" y="336" class="t0">0</tspan><tspan  y="336" class="t0">
</tspan>
		</text>
		<text id="1 0 1 0 1" style="transform: matrix(1,0,0,1,3569.838,3163.192)" >
			<tspan x="0" y="0" class="t0">1</tspan><tspan  y="0" class="t0">
</tspan>
			<tspan x="0" y="84" class="t0">0</tspan><tspan  y="84" class="t0">
</tspan>
			<tspan x="0" y="168" class="t0">1</tspan><tspan  y="168" class="t0">
</tspan>
			<tspan x="0" y="252" class="t0">0</tspan><tspan  y="252" class="t0">
</tspan>
			<tspan x="0" y="336" class="t0">1</tspan><tspan  y="336" class="t0">
</tspan>
		</text>
		<text id="1 1 0 1 1" style="transform: matrix(1,0,0,1,3629.838,3163.192)" >
			<tspan x="0" y="0" class="t0">1</tspan><tspan  y="0" class="t0">
</tspan>
			<tspan x="0" y="84" class="t0">1</tspan><tspan  y="84" class="t0">
</tspan>
			<tspan x="0" y="168" class="t0">0</tspan><tspan  y="168" class="t0">
</tspan>
			<tspan x="0" y="252" class="t0">1</tspan><tspan  y="252" class="t0">
</tspan>
			<tspan x="0" y="336" class="t0">1</tspan><tspan  y="336" class="t0">
</tspan>
		</text>
		<text id="1 1 0 1 0" style="transform: matrix(1,0,0,1,3689.838,3079.192)" >
			<tspan x="0" y="0" class="t0">1</tspan><tspan  y="0" class="t0">
</tspan>
			<tspan x="0" y="84" class="t0">1</tspan><tspan  y="84" class="t0">
</tspan>
			<tspan x="0" y="168" class="t0">0</tspan><tspan  y="168" class="t0">
</tspan>
			<tspan x="0" y="252" class="t0">1</tspan><tspan  y="252" class="t0">
</tspan>
			<tspan x="0" y="336" class="t0">0</tspan><tspan  y="336" class="t0">
</tspan>
		</text>
		<text id="1 1 0 1 1 1" style="transform: matrix(1,0,0,1,3749.838,2993.192)" >
			<tspan x="0" y="0" class="t0">1</tspan><tspan  y="0" class="t0">
</tspan>
			<tspan x="0" y="84" class="t0">1</tspan><tspan  y="84" class="t0">
</tspan>
			<tspan x="0" y="168" class="t0">0</tspan><tspan  y="168" class="t0">
</tspan>
			<tspan x="0" y="252" class="t0">1</tspan><tspan  y="252" class="t0">
</tspan>
			<tspan x="0" y="336" class="t0">1</tspan><tspan  y="336" class="t0">
</tspan>
			<tspan x="0" y="420" class="t0">1</tspan><tspan  y="420" class="t0">
</tspan>
		</text>
		<text id="1 1 0 0 0" style="transform: matrix(1,0,0,1,3809.838,2993.192)" >
			<tspan x="0" y="0" class="t0">1</tspan><tspan  y="0" class="t0">
</tspan>
			<tspan x="0" y="84" class="t0">1</tspan><tspan  y="84" class="t0">
</tspan>
			<tspan x="0" y="168" class="t0">0</tspan><tspan  y="168" class="t0">
</tspan>
			<tspan x="0" y="252" class="t0">0</tspan><tspan  y="252" class="t0">
</tspan>
			<tspan x="0" y="336" class="t0">0</tspan><tspan  y="336" class="t0">
</tspan>
		</text>
		<text id="1 1 0 0 0" style="transform: matrix(1,0,0,1,3869.838,2908.192)" >
			<tspan x="0" y="0" class="t0">1</tspan><tspan  y="0" class="t0">
</tspan>
			<tspan x="0" y="84" class="t0">1</tspan><tspan  y="84" class="t0">
</tspan>
			<tspan x="0" y="168" class="t0">0</tspan><tspan  y="168" class="t0">
</tspan>
			<tspan x="0" y="252" class="t0">0</tspan><tspan  y="252" class="t0">
</tspan>
			<tspan x="0" y="336" class="t0">0</tspan><tspan  y="336" class="t0">
</tspan>
		</text>
	</g>
	<path id="Duck" class="s1" d="m2118 2288.5q-11.7-1-23.3-2.2-11.7-1.3-23.2-2.9-11.5-1.7-23-3.6-11.4-1.9-22.7-4.1-11.4-2.3-22.6-4.8-11.2-2.6-22.3-5.4-11.2-2.9-22.2-6-11-3.2-21.9-6.6-10.9-3.5-21.6-7.2-10.8-3.8-21.5-7.8-10.6-4-21.1-8.3-10.6-4.4-21-9-10.4-4.5-20.7-9.4-10.3-4.9-20.5-10-10.1-5.1-20.2-10.5-10-5.4-19.9-11-9.9-5.6-19.7-11.5-9.8-5.9-19.5-12-9.6-6.1-19.2-12.4-9.5-6.3-18.9-12.8-9.4-6.6-18.6-13.3-9.3-6.7-18.4-13.6-9.2-7-18.2-14.1-9-7.1-17.9-14.4-8.8-7.2-17.6-14.7-8.7-7.4-17.3-15-8.6-7.6-17-15.4-8.5-7.7-16.8-15.6-8.3-7.9-16.5-15.9-8.2-8-16.2-16.1-8.1-8.2-15.9-16.4-7.9-8.3-15.7-16.6-7.7-8.4-15.3-16.8-7.6-8.5-15-17-7.5-8.5-14.8-17.2-7.3-8.6-14.4-17.3-7.1-8.7-14.1-17.5-7-8.7-13.7-17.6-6.9-8.8-13.5-17.7-6.6-8.9-13.1-17.9-6.4-9-12.7-18-6.3-9-12.4-18.1-6.1-9.1-12-18.2-5.9-9.1-11.7-18.3-5.7-9.2-11.2-18.4-5.6-9.2-10.9-18.5-5.3-9.2-10.4-18.5-5.2-9.3-10.1-18.7-4.9-9.3-9.6-18.7-4.7-9.4-9.2-18.8-4.5-9.4-8.7-18.9-4.3-9.5-8.3-19-4-9.5-7.8-19-3.8-9.6-7.4-19.2-3.5-9.5-6.8-19.2-3.3-9.6-6.4-19.2-3-9.7-5.8-19.4-2.8-9.7-5.3-19.4-2.6-9.7-4.8-19.5-2.3-9.8-4.3-19.6-2-9.8-3.7-19.7-1.7-9.8-3.1-19.7-1.4-9.9-2.6-19.8-1.1-9.9-1.9-19.9-0.9-9.9-1.4-19.8-0.6-9.9-0.8-19.7-0.2-9.7-0.2-19.5 0.1-9.7 0.5-19.3 0.4-9.6 1-19.1 0.7-9.6 1.6-19 1-9.5 2.3-18.9 1.2-9.3 2.8-18.6 1.5-9.3 3.3-18.5 1.9-9.2 4-18.3 2.1-9.1 4.5-18.1 2.4-9 5.1-18 2.7-8.9 5.7-17.7 2.9-8.9 6.2-17.6 3.2-8.7 6.7-17.4 3.5-8.6 7.3-17.2 3.8-8.5 7.9-17 4-8.4 8.3-16.8 4.4-8.4 9-16.6 4.5-8.3 9.4-16.4 4.8-8.2 9.9-16.2 5.1-8.1 10.5-16 5.4-7.9 11-15.8 5.6-7.8 11.5-15.5 5.8-7.8 11.9-15.4 6.1-7.6 12.5-15.1 6.3-7.5 12.9-14.9 6.6-7.3 13.4-14.6 6.9-7.3 13.9-14.4 7.1-7.1 14.4-14.2 7.2-7 14.8-13.9 7.5-6.9 15.2-13.6 7.7-6.8 15.7-13.4 7.9-6.6 16.1-13.1 8.1-6.5 16.5-12.8 8.4-6.4 16.9-12.5 8.6-6.2 17.3-12.3 8.8-6 17.8-11.9 8.9-5.9 18.1-11.6 9.1-5.7 18.4-11.3 9.4-5.6 18.9-11 9.5-5.3 19.1-10.6 9.7-5.2 19.6-10.2 9.8-5 19.8-9.9 10-4.8 20.2-9.5 10.1-4.6 20.5-9.1 10.3-4.4 20.7-8.7 10.5-4.2 21.1-8.3 10.6-4 21.4-7.8 10.7-3.8 21.6-7.4 10.8-3.6 21.8-7 11.1-3.4 22.2-6.5 11.1-3.2 22.3-6.1 11.3-2.9 22.7-5.5 11.3-2.7 22.8-5.1 11.5-2.4 23-4.5 11.6-2.2 23.3-4.1 11.7-1.9 23.4-3.5 11.8-1.6 23.7-2.9 11.9-1.4 23.8-2.5 12-1 24.1-1.8 12-0.8 24.1-1.3 12.2-0.5 24.4-0.7 12.2-0.2 24.5-0.1 12.3 0 24.6 0.4 12.2 0.4 24.4 1.1 12.1 0.7 24.2 1.6 12.1 1 24.1 2.2 12 1.3 23.9 2.8 11.9 1.5 23.8 3.3 11.8 1.9 23.6 3.9 11.7 2.1 23.4 4.5 11.6 2.3 23.2 5 11.6 2.6 23 5.5 11.5 2.9 22.9 6 11.3 3.2 22.6 6.6 11.2 3.4 22.4 7.1 11.2 3.6 22.2 7.5 11 4 22 8.1 10.9 4.2 21.7 8.6 10.8 4.4 21.5 9 10.7 4.7 21.2 9.5 10.6 4.9 21 10 10.4 5.1 20.7 10.5 10.3 5.3 20.4 10.9 10.2 5.5 20.2 11.3 10 5.8 19.8 11.8 9.9 6 19.6 12.2 9.7 6.2 19.2 12.6 9.6 6.4 18.9 13 9.4 6.6 18.6 13.5 9.2 6.8 18.2 13.8 9.1 7 17.9 14.2 8.9 7.2 17.6 14.6 8.6 7.4 17.1 15 8.5 7.5 16.8 15.3 8.3 7.7 16.4 15.7 8.1 7.9 16 16 7.9 8.1 15.6 16.4 7.7 8.2 15.2 16.6 7.5 8.5 14.7 17 7.3 8.6 14.4 17.4 7 8.7 13.9 17.6 6.8 8.9 13.4 17.9 6.6 9 13 18.2 6.4 9.1 12.5 18.4 6.2 9.3 12.1 18.8 5.9 9.4 11.6 19 5.7 9.5 11.1 19.2 5.4 9.7 10.6 19.5 5.2 9.8 10.1 19.7 4.9 9.9 9.6 20 4.7 10 9.1 20.1 4.4 10.1 8.5 20.4 4.2 10.2 8.1 20.6 3.8 10.3 7.4 20.7 3.6 10.4 7 21 3.3 10.5 6.3 21.1 3.1 10.6 5.8 21.3 2.8 10.7 5.3 21.5 2.5 10.8 4.6 21.7 2.2 10.8 4.1 21.8 1.9 10.9 3.5 21.9 1.6 11.1 2.8 22.2 1.3 11 2.3 22.2 1 11.2 1.6 22.4 0.7 11.2 1 22.5 0.4 11.3 0.4 22.6 0 11.4-0.3 22.6-0.3 11.3-0.9 22.5-0.6 11.2-1.5 22.3-1 11.1-2.2 22.1-1.3 11-2.8 21.9-1.6 10.9-3.4 21.7-1.8 10.9-4 21.6-2.1 10.7-4.6 21.3-2.4 10.6-5.1 21.1-2.8 10.5-5.8 20.9-3 10.4-6.3 20.7-3.2 10.3-6.8 20.5-3.6 10.1-7.4 20.1-3.8 10.1-7.9 20-4.1 9.9-8.5 19.7-4.3 9.7-9 19.4-4.6 9.6-9.4 19.1-4.9 9.5-10 18.8-5.1 9.4-10.5 18.6-5.3 9.1-10.9 18.2-5.6 9-11.4 17.9-5.8 8.9-11.9 17.6-6 8.7-12.3 17.2-6.2 8.6-12.7 17-6.5 8.3-13.2 16.5-6.7 8.2-13.6 16.2-6.9 8.1-14 15.9-7.1 7.8-14.4 15.5-7.3 7.6-14.8 15.1-7.5 7.5-15.2 14.8-7.7 7.2-15.6 14.3-7.8 7.1-15.9 14-8 6.9-16.3 13.6-8.2 6.7-16.6 13.2-8.4 6.5-17 12.7-8.5 6.3-17.3 12.4-8.7 6.1-17.6 12-8.9 5.9-17.9 11.5-9.1 5.7-18.3 11.2-9.2 5.5-18.6 10.7-9.3 5.3-18.8 10.3-9.5 5-19.1 9.9-9.7 4.8-19.5 9.4-9.7 4.6-19.7 9-9.9 4.4-19.9 8.5-10.1 4.2-20.2 8.1-10.2 4-20.5 7.7-10.3 3.7-20.7 7.2-10.4 3.4-20.9 6.7-10.5 3.2-21.2 6.2-10.6 3-21.4 5.8-10.7 2.7-21.5 5.2-10.9 2.5-21.8 4.8-11 2.2-22 4.2-11 2-22.2 3.7-11.1 1.7-22.3 3.2-11.2 1.4-22.5 2.6-11.3 1.1-22.6 2-11.4 0.9-22.8 1.5-11.5 0.6-23 0.9-11.5 0.3-23.1 0.3-11.5-0.1-23.1-0.4-11.7-0.3-23.3-1-11.7-0.6-23.5-1.6zm-461 706.5q-14.8 0-29.4-0.5-14.7-0.6-29.3-1.6-14.6-1-29-2.5-14.4-1.5-28.7-3.5-14.4-1.9-28.5-4.3-14.2-2.4-28.2-5.3-14-2.8-27.8-6.1-13.8-3.2-27.4-6.9-13.6-3.7-26.9-7.8-13.4-4.1-26.5-8.7-13.1-4.5-25.9-9.5-12.8-4.9-25.3-10.3-12.5-5.4-24.6-11.1-12.1-5.8-23.9-12-11.7-6.2-23.1-12.7-11.4-6.6-22.3-13.5-11-7-21.5-14.2-10.4-7.3-20.5-14.9-10-7.6-19.5-15.6-9.5-7.9-18.5-16.1-9-8.2-17.5-16.7-8.4-8.5-16.3-17.3-7.9-8.7-15.2-17.8-7.2-9-13.9-18.3-6.6-9.3-12.6-18.9-6-9.5-11.3-19.4-5.3-9.9-9.8-20.1-4.5-10.3-8.3-20.9-3.8-10.6-6.7-21.6-2.9-11-5-22.6-2.1-11.5-3.2-23.6-1.1-12.2-1.3-24.9-0.1-12.8 0.8-26 0.9-13.2 2.7-26.8 2-13.7 4.9-27.8 2.9-14.2 6.8-28.7 4-14.7 9-29.8 5-15.2 10.9-30.8 6-15.6 12.9-31.7 7-16.1 14.8-32.5 8-16.5 16.8-33.3 8.8-16.8 18.5-33.8 9.7-17.1 20.2-34.3 10.6-17.3 21.9-34.5 11.3-17.3 23.4-34.5 12.1-17.2 24.8-34.3 12.7-17 26.1-33.7 13.3-16.7 27.2-33.1 13.9-16.3 28.3-32.1 14.3-15.7 29.1-30.8 14.8-15.1 30-29.5 15.1-14.2 30.5-27.7 15.4-13.4 31-26 15.6-12.4 31.4-23.9 15.8-11.3 31.7-21.7 15.9-10.2 31.8-19.4 15.9-9 31.9-17 15.9-7.8 31.9-14.5 15.8-6.5 31.7-11.9 15.8-5.2 31.6-9.3 15.7-3.8 31.3-6.6 15.6-2.5 31.1-4 15.4-1.2 30.7-1.2 15.2 0.1 30.3 1.3 15.1 1.4 29.6 4 14.5 2.6 28.5 6.3 14 3.9 27.5 8.6 13.4 4.9 26.3 10.7 12.9 6 25.3 12.7 12.4 6.9 24.2 14.5 11.9 7.7 23.3 16.2 11.3 8.5 22.1 17.7 10.8 9.3 21.2 19.2 10.2 10 20.1 20.5 9.8 10.6 19.1 21.7 9.2 11.1 18.1 22.7 8.7 11.7 17.1 23.8 8.3 12.1 16.1 24.6 7.8 12.5 15.2 25.3 7.3 12.8 14.2 26 6.8 13.1 13.3 26.4 6.4 13.4 12.4 26.9 6 13.6 11.5 27.2 5.6 13.7 10.8 27.4 5.1 13.8 9.9 27.5 4.7 13.8 9.1 27.6 4.4 13.8 8.3 27.5 4 13.7 7.6 27.4 3.6 13.7 6.8 27.3 3.3 13.5 6.1 27 2.9 13.4 5.3 26.8 2.4 13.3 4.4 26.6 2.1 13.2 3.6 26.3 1.6 13.1 2.7 26.1 1.1 13 1.6 25.9 0.6 12.9 0.6 25.7 0 12.8-0.6 25.3-0.6 12.5-1.8 24.7-1.3 12.2-3.1 24.1-1.9 11.9-4.4 23.5-2.5 11.7-5.7 23.1-3.2 11.5-7.1 22.7-3.9 11.3-8.5 22.3-4.6 11.1-9.8 21.9-5.3 10.9-11.2 21.6-5.9 10.7-12.5 21.2-6.6 10.5-13.8 20.7-7.2 10.3-15 20.4-7.9 10.1-16.3 19.8-8.4 9.9-17.4 19.4-9 9.5-18.5 18.7-9.5 9.1-19.4 18-10 8.8-20.5 17.2-10.4 8.4-21.3 16.4-10.8 8-22.1 15.5-11.2 7.5-22.8 14.5-11.6 7-23.5 13.5-11.9 6.4-24.1 12.3-12.3 5.9-24.8 11.2-12.5 5.3-25.3 10.1-12.8 4.7-25.8 8.8-13 4.1-26.3 7.6-13.3 3.4-26.9 6.3-13.5 2.9-27.3 5.2-13.8 2.3-27.8 4-14 1.7-28.3 2.8-14.3 1.1-28.8 1.7-14.5 0.5-29.3 0.5zm-274.2-1156.3q-14-0.1-28-0.9-14.2-0.8-28.4-2.3-14.3-1.5-28.7-3.7-14.5-2.3-29-5.3-14.6-3-29.2-6.7-14.7-3.8-29.4-8.2-14.8-4.5-29.5-9.6-14.9-5.3-29.6-11.1-14.9-5.9-29.6-12.5-14.9-6.6-29.6-13.8-14.9-7.2-29.5-15-14.7-7.9-29.2-16.3-14.6-8.5-28.9-17.4-14.4-9-28.5-18.4-14.1-9.5-27.9-19.4-13.8-9.9-27.2-20.2-13.4-10.3-26.3-21-13-10.6-25.4-21.5-12.4-10.9-24.2-22-11.9-11.1-23-22.4c-14.9-14.9-28.8-30-41.6-45.3-12.8-15.1-24.4-30.3-34.9-45.4-10.4-15-19.5-29.9-27.4-44.8-7.7-14.6-14.2-29.2-19.3-43.6q-7.6-21.1-11.2-41.8-3.6-20.2-3.2-39.8c0.2-12.7 1.7-24.9 4.2-36.6 2.5-11.3 6-22.1 10.5-32.3 4.3-9.9 9.5-19.3 15.5-28.1 5.8-8.4 12.4-16.3 19.6-23.5q10.6-10.3 23.1-18.8 12.2-7.9 26.2-14 6.9-2.8 14.3-5.1 7.2-2.2 14.9-3.9 7.7-1.7 15.8-2.8 8-1.1 16.5-1.7 8.5-0.5 17.4-0.7 8.9 0 18.2 0.3 9.4 0.4 19.1 1.1 9.8 0.8 20 1.9 10.3 1.1 21 2.5 10.6 1.4 21.8 2.9 11.1 1.7 22.8 3.4 11.6 1.8 23.6 3.7 12.1 1.9 24.6 3.8 12.5 2 25.4 4 13 2 26.3 4.1 13.3 2 27.1 4.1 13.7 2 27.8 4.1 14 2 28.4 4.1 14.4 2 29.1 4.2 14.7 2.1 29.7 4.3 14.9 2.2 29.8 4.4 14.8 2.2 29.5 4.6 14.6 2.3 29.1 4.8 14.5 2.4 28.8 5 14.2 2.7 28.3 5.4 14 2.8 27.8 5.8 13.7 3 27.2 6.1 13.5 3.2 26.7 6.6 13.2 3.3 26 6.9 12.9 3.5 25.4 7.3 12.5 3.7 24.7 7.6 12.1 3.9 23.9 7.9 11.7 4 23.1 8.2 11.4 4.1 22.3 8.4 10.9 4.2 21.4 8.6 10.4 4.3 20.4 8.8 10 4.3 19.5 8.8 9.5 4.5 18.5 9.1 8.9 4.5 17.3 9.1 8.4 4.6 16.2 9.3 15.6 9.3 28.9 19.3 13.1 9.8 23.8 20.4 10.5 10.4 18.4 22 7.8 11.4 13.1 24 5.1 12.6 7.7 26.4 2.6 13.9 2.6 29c0 10.1-0.7 20.3-2.2 30.7-1.4 10.4-3.6 20.8-6.3 31.4-2.7 10.4-5.9 20.9-9.7 31.4-3.7 10.4-8 20.8-12.7 31.1q-7 15.3-15.4 30.3-8.2 14.9-17.9 29.2-4.8 7.2-9.9 14.2-5.1 7-10.6 13.8-5.5 6.8-11.3 13.4-5.9 6.6-12.1 13.1-6.2 6.4-12.8 12.6-6.6 6.3-13.6 12.3-7 6-14.5 11.7-7.4 5.8-15.3 11.3-7.9 5.6-16.2 10.8-8.4 5.3-17.2 10.2-8.9 5-18.2 9.6-9.3 4.6-19.1 8.9-9.8 4.3-20.1 8.2-10.4 3.8-21.1 7.3-10.9 3.5-22.2 6.4-11.4 3-23.2 5.5-11.9 2.4-24.2 4.4-12.4 1.9-25.2 3.2-12.9 1.3-26.3 2-13.4 0.6-27.3 0.6zm-31.1 31.1c-14.1-0.5-42.9-9.6-85.2-26.7-45.3-18.5-99.2-42.7-152.8-68.7-46.6-23.1-84.8-44.4-109.3-61.4-12.9-12-11.8-19.7 2.7-23 22-0.2 50.8 1.8 82.4 5 32.7 3.5 65.1 6.6 94.4 9 27.4 1.4 51.2 1.8 70.8 1.7 18-0.9 33.3-1.7 46.3-1.7 13 0 24.1 1.5 33.9 4.5 11 3.4 21.3 8.7 30.6 15.4 9.9 7 17.8 15 23.1 23.7 4.5 8.2 6.4 17.2 6.4 26.9 0 9.7-0.9 19.9-2.7 29.8-2 9.8-5.7 19.2-11 27.4-4.2 8.5-8.6 16.6-13.2 23.4-1 8.2-4.5 14.2-16.4 14.7zm159.7 195.6c-6.9 4.1-14.2 6.2-22 6.4-8.4-0.9-17.5-4-27.1-9.3-10.4-6.5-21.4-15.2-32.9-25.9-12.2-11.8-24.9-25.5-37.7-40.5-13.4-15.9-26.8-32.8-39.9-50.2-13.4-17.7-26.2-35.5-38-52.8-11.7-17-22.1-33.2-30.7-48-8.2-14.3-14.4-27.1-18.2-38.1-3-10.3-3.4-18.6-1.4-25 2.7-5.9 7.6-10.3 14.5-13.4 7.4-3 16.4-4.9 26.6-6 10.4-1.2 21.7-1.8 33.5-2 11.8-0.4 23.8-0.6 35.8-0.6 11.7-0.3 23.3-0.5 34.5-0.7 10.9-0.5 21.5-1 31.7-1.4 10-0.5 19.8-0.9 29.4-0.9 9.6 0 18.7 0.6 27.4 1.7q13.2 2 25.4 6.2c8.3 3 16.2 6.7 23.6 11.1 7.6 4.4 14.6 9.5 21.1 15 6.4 5.6 12.2 11.6 17.3 17.9 5.1 6.3 9.4 12.8 12.9 19.7 3.5 6.8 6.2 13.9 8 21.3 1.9 7.4 2.8 15.1 2.8 23.1 0 8-0.9 16-2.7 24-1.8 8-4.3 16.1-7.6 24.1-3.1 8.1-6.9 16.3-11.2 24.5-4.1 8.4-8.6 16.9-13.4 25.4-4.5 8.7-9.3 17.5-14.2 26.2-4.7 8.9-9.5 17.7-14.5 26.2-4.8 8.6-9.9 16.7-15.2 24-5.5 7.2-11.3 13.3-17.8 18zm-250.6-822.2c-9.8 1.7-19.3 1.9-28 0.5-8.5-1.9-16.1-5.9-22.2-11.9-6-6.1-10.7-13.5-13.8-21.5-3.3-6.8-5-14.7-4.2-25.4 0.8-11 4.3-25.9 10.2-44.1 5.8-18.1 13.5-37.2 22.1-54.7 7.9-13.9 16.4-24.2 25-30.2 7.9-2.4 16.2-1.6 24.7 2 8.2 5.6 15.8 13 22.7 21.9 6.6 10 12.5 21 17.3 32.3 4.9 11.3 9 22.3 11.8 32.4 2.9 9.7 4.6 18.9 4.6 27.5 0 8.6-1.8 16.3-5.1 23.2-3.4 7.4-8.4 14.4-14.7 20.8-6.5 6.8-14.1 12.9-22.7 17.6-8.5 4.6-17.8 7.8-27.7 9.6zm801.2 622.8h2143v748h-2143zm672.3 105.6q-15.6-2.8-30.9-7.6-15.2-4.8-29.9-11.3-14.7-6.6-28.9-14.8-14.1-8.2-27.6-17.9-13.5-9.8-26.3-20.9-12.7-11-24.7-23.3-11.9-12.2-23-25.5-11.1-13.2-21.3-27.4-10.2-14-19.4-29-9.1-14.8-17.2-30.5-8.1-15.6-15.1-32-6.9-16.3-12.6-33.4-5.7-17-10-34.8-4.4-17.7-7.4-36.1-3-18.5-4.5-37.5-1.5-19-1.5-38.6 0-19.6 1.5-38.6 1.6-19 4.5-37.5 3-18.4 7.4-36.3 4.4-17.8 10.2-35 5.9-17.2 13-33.8 7.2-16.6 15.7-32.5 8.6-16 18.4-31.3 9.8-15.3 20.8-29.7 11-14.6 23.2-28.1 12.1-13.6 25.2-26 13-12.4 27-23.6 13.9-11.1 28.6-20.7 14.6-9.6 30-17.7 15.3-7.9 31.2-14.3 15.9-6.3 32.5-11 16.5-4.7 33.6-7.7 17-3 33.9-4.4 16.7-1.2 33.2-0.9 16.4 0.4 32.3 2.5 15.9 2.2 31.1 6.2 15.1 4.2 29.4 10.2 14.1 6.5 27.3 14.9 12.9 8.8 24.8 19.7 11.5 11.3 21.8 24.8 10.1 13.9 18.8 29.7 8.5 16.4 15.6 34.4 6.8 18.5 12.3 38.5 5.4 20.2 9.4 41.6 3.8 21.7 6.4 44.2 2.5 22.7 3.7 46.1 1.1 23.5 1 47.5-0.2 24.1-1.8 48.6-1.6 24.7-4.4 48.7-3 24.1-7.2 47.5-4.2 23.5-9.7 46.3-5.6 22.8-12.3 44.8-6.9 22-14.8 43-8 20.8-17 40.4-9.1 19.4-19.1 37.3-10.1 17.6-21 33.4-10.9 15.5-22.6 29.1-11.7 13.2-24.1 24.3-12.4 10.7-25.4 19.3-13 8.3-26.6 14.5-13.7 5.9-27.8 9.7-14.2 3.7-28.9 5.2-14.8 1.4-30 0.8-15.2-0.7-30.8-3.5zm1343.2 710.9q-13.1-3.7-25.9-9.5-12.9-5.9-25.3-13.8-12.5-8.1-24.5-18.1-11.9-10-23.3-22-11.4-12.1-22.2-25.9-10.7-13.9-20.8-29.4-10-15.4-19.2-32.2-9.2-16.7-17.6-34.5-8.4-17.6-15.8-36-7.5-18.1-14.1-36.8-6.5-18.2-12.2-37-5.6-18.3-10.2-37.1-2.3-9.3-4.4-18.7-2-9.2-3.8-18.7-1.8-9.3-3.3-18.9-1.5-9.4-2.8-19.2-1.2-9.6-2.2-19.6-0.9-9.9-1.6-20.2-0.6-10.3-1-21-0.3-10.7-0.3-21.9 0-11.2 0.3-22.8 0.4-11.5 1.1-23.5 0.6-11.9 1.6-24.3 1.1-12.4 2.4-25.2 1.4-12.9 3-26.2 1.7-13.4 3.7-27.1 2-13.9 4.3-28.1 2.3-14.3 5-28.9c3.5-19.6 7.4-39.7 11.6-60 4.3-20.5 9-41.2 14-62 5-20.8 10.3-41.6 16-62.4 5.6-20.6 11.6-41.1 17.8-61.2 6.2-19.8 12.7-39.3 19.4-58.2 6.7-18.5 13.7-36.3 20.8-53.5 7.1-16.6 14.5-32.4 22-47.3 7.4-14.3 15.1-27.7 22.9-40 7.8-11.6 15.7-22.2 23.7-31.6q12-13.2 24.3-22.7 12.2-8.6 24.7-13.3 12.4-3.8 24.9-3.6c8.3 0.8 16.5 2.9 24.5 6.2 7.9 4 15.6 9.1 23.1 15.4 7.5 6.9 14.8 14.9 21.9 23.8 7 9.6 13.9 20.2 20.5 31.7 6.5 12 12.9 24.9 19 38.7 6.1 14.2 11.9 29.3 17.6 45 5.5 16.1 10.9 32.9 16 50.3 5.1 17.7 10 35.9 14.6 54.5 4.5 18.8 8.9 37.9 13 57.3 4 19.5 7.9 39.2 11.4 58.9 3.6 19.8 6.9 39.6 9.9 59.3 3 19.7 5.8 39.2 8.3 58.6q1.8 14.5 3.5 28.9 1.7 14.3 3.1 28.5 1.5 14.2 2.7 28.1 1.2 14 2.3 27.8 1 13.8 1.8 27.4 0.8 13.7 1.4 27.2 0.5 13.5 0.9 27 0.3 13.5 0.5 26.9 0.1 13.5 0 26.7-0.2 13.2-0.5 26.2-0.4 13-1 25.7-0.6 12.9-1.4 25.5-0.9 12.7-2 25.2-1 12.6-2.3 25-1.4 12.4-2.9 24.7-1.6 12.3-3.3 24.4-3.6 24.4-8.2 47.8c-3 15.6-6.4 30.9-10 45.6-3.7 14.8-7.8 29-12.1 42.7-4.4 13.5-9 26.5-14 38.7q-7.5 18-15.9 33.8-8.5 15.4-17.8 28.4-9.4 12.5-19.5 22.5-10.2 9.6-21.1 16.6-10.9 6.6-22.5 10.8-11.6 3.9-23.8 5.3-12.2 1.3-24.8 0.2-12.8-1.3-25.9-4.9zm8.5-795.5c-8.5 0-16.8-1.5-24.8-4.3-8-2.8-15.7-7-23.1-12.4-7.4-5.4-14.3-11.9-20.9-19.6-6.5-7.6-12.6-16.4-18.2-26-5.5-9.6-10.6-20.2-15-31.5-4.4-11.4-8.2-23.5-11.3-36.2q-2.4-9.6-4.2-19.6-1.8-10-3-20.4-1.2-10.4-1.9-21.2-0.6-10.8-0.6-21.8 0-11 0.6-21.8 0.7-10.8 1.9-21.2 1.2-10.4 3-20.4 1.8-10 4.2-19.6c3.2-12.7 7.1-24.8 11.6-36.1 4.6-11.3 9.9-21.7 15.8-31.3 6-9.5 12.7-18 19.8-25.5 7.3-7.5 15.2-14 23.4-19.3 8.3-5.3 17-9.5 26-12.4 9-3 18.1-4.6 27.5-4.6q13.8 0.1 26.8 6 12.9 6.4 25.2 19.5c8.2 9.3 16.3 21.1 24.2 35 8.1 14.5 15.9 31 23.4 49 7.7 18.3 14.8 37.6 21.3 57.3 6.4 19.2 11.9 38.2 16.2 56.2 2.1 8.6 3.9 16.9 5.3 24.9q2.1 11.4 3 21.6 0.8 9.6 0.5 17.9-0.5 7.9-2.1 14.4c-1.1 4.2-2.6 7.9-4.4 11.2q-2.7 4.8-6.2 8.7-3.5 4-7.5 7.5-4.1 3.6-8.5 7.1c-5.8 5.2-12 10.4-18.5 15.8-6.3 6.2-12.8 12.6-19.5 18.9-6.5 7-13.3 13.8-20.4 20.1-6.9 6.7-14.1 12.7-21.6 17.7-7.4 5.2-15.2 9.3-23.2 12.1-8 2.8-16.3 4.3-24.8 4.3zm-558 344q-13.8 0-27.6-0.3-13.8-0.3-27.5-0.9-13.8-0.5-27.5-1.4-13.8-0.9-27.5-2-13.8-1.1-27.6-2.6-13.9-1.4-27.7-3.1-14-1.7-28-3.7-14.1-1.9-28.3-4.2-14.2-2.2-28.6-4.7-14.4-2.6-29-5.3-14.6-2.8-29.4-5.8-14.8-3-29.7-6.3-15.1-3.3-30.2-6.8-15.2-3.5-30.5-7.3-15.4-3.7-30.7-7.7-15.5-4-30.8-8.3c-20.8-5.7-41.3-11.7-61.4-18-20.4-6.3-40.4-13-59.7-19.9-19.5-7.1-38.2-14.4-56.1-22-17.7-7.7-34.5-15.6-50-23.8-15.3-8.3-29.2-16.8-41.6-25.5-12-8.8-22.4-17.7-31-26.7-8.1-9.1-14.2-18.2-18.4-27.3-3.6-9.1-5.1-18.2-4.5-27.1 1.2-8.8 4.5-17.3 9.6-25.3 5.7-7.9 13.1-15.3 22.1-22.2 9.4-6.7 20.2-13 32.3-18.7 12.2-5.5 25.6-10.5 39.8-15 14.3-4.3 29.3-8.2 44.9-11.6 15.4-3.4 31.3-6.3 47.5-8.8 15.9-2.5 32.1-4.7 48.4-6.7 15.8-2 31.8-3.8 47.8-5.5q11.7-1.3 23.4-2.6 11.6-1.3 23.1-2.6 11.4-1.3 22.8-2.7 11.2-1.4 22.5-2.9 11.1-1.6 22.2-3.3 11.1-1.7 22.2-3.5 11.1-2 22.2-4 11.2-2.2 22.5-4.5 11.3-2.4 22.8-4.9 11.6-2.7 23.4-5.5 11.9-2.9 24.2-6 12.4-3.2 25.2-6.6 12.9-3.4 26.3-7.2 13.5-3.7 27.6-7.8 14.2-4.1 29.1-8.5 15-4.4 30.7-9.2 15.8-4.9 31.9-10 16.2-5.1 32.7-10.6 16.7-5.5 33.6-11.3 17-5.8 34.2-12 17.2-6.3 34.6-12.8 17.5-6.7 35-13.7 17.6-7.1 35.1-14.5 17.6-7.5 35-15.3 17.4-7.9 34.7-16.1 17.2-8.2 34.1-16.8 16.8-8.6 33.3-17.4 16.4-8.8 32.4-17.8 15.8-9 31.1-18.1 15.2-9 29.8-18 14.4-9 28.2-17.8 13.7-8.7 26.6-17.2c17-11 32.9-21.4 47.7-31.1 14.5-9.2 27.8-17.3 40.1-24.4 11.8-6.2 22.5-11.1 32-14.5 9.2-2.3 17.3-3 24.2-1.8 6.6 2.4 12.1 6.7 16.5 13.1q6.3 11.4 9.3 29.2 2.8 19.7 2.4 45.5c-0.3 18.3-1.7 38.5-4.1 60.5-2.4 22.8-5.9 46.7-10.1 71.2-4.4 25-9.5 50.5-15.5 76.1-6 25.6-12.7 51.2-20.2 76.4-7.5 25-15.7 49.5-24.6 73.2-8.9 23.2-18.4 45.6-28.6 67-10.1 20.7-20.8 40.3-32.1 58.7q-16.9 26.6-35.4 49.7-18.4 21.9-38.4 40.4-9.9 8.9-20.1 16.9-10.3 7.8-20.8 14.9-10.6 6.8-21.5 12.9-10.8 6-21.9 11.3-11.2 5.1-22.6 9.6-11.3 4.4-23 8.3-11.6 3.7-23.5 7-11.9 3.2-24 5.9-12.1 2.7-24.5 5-12.3 2.2-24.8 4.1-12.6 1.8-25.3 3.3-12.8 1.5-25.7 2.7-13 1.1-26.2 2-13.1 0.9-26.5 1.4-13.4 0.6-27 0.9-13.6 0.3-27.4 0.3zm-2375.5-1049.8l70.7-13.8 6.3 32.4-70.7 13.8z"/>
	<path id="Sift" class="s2" d="m580 2602.1c0-13.8 5.6-26.3 14.6-35.4 9.1-9 21.6-14.6 35.4-14.6 0 0 3.8 0 11.3 0 7.5 0 18.5 0 32.9 0q10.9 0 24.2 0 13.3 0 29 0 15.7 0 33.7 0 18 0 38.2 0 10.1 0 20.7 0 10.7 0 21.8 0 11.2 0 22.9 0 11.6 0 23.8 0 12.2 0 24.9 0 12.6 0 25.8 0 13.1 0 26.7 0 13.6 0 27.7 0 14.1 0 28.6 0 14.5 0 29.4 0 15 0 30.4 0 15.3 0 31.1 0 15.8 0 32 0 16.2 0 32.7 0 16.6 0 33.6 0 16.9 0 34.2 0 17.3 0 35 0 17.7 0 35.7 0 18 0 36.4 0 18.3 0 37 0 18.6 0 37.6 0 19 0 38.3 0 19.2 0 38.8 0 19.6 0 39.4 0 19.9 0 40 0 10 0 20.1 0 10.1 0 20.3 0 10.2 0 20.4 0 10.3 0 20.6 0 10.3 0 20.6 0 10.4 0 20.8 0 10.4 0 20.9 0 10.5 0 21 0 10.5 0 21.1 0 10.6 0 21.2 0 10.6 0 21.3 0 10.7 0 21.4 0 10.8 0 21.5 0 10.8 0 21.6 0 10.9 0 21.7 0 10.9 0 21.8 0 10.9 0 21.9 0 10.9 0 21.9 0 11 0 22 0 11.1 0 22.1 0 11.1 0 22.2 0 11.1 0 22.2 0 11.2 0 22.3 0 11.2 0 22.4 0 11.2 0 22.4 0 11.3 0 22.5 0 11.3 0 22.6 0 11.3 0 22.6 0 11.3 0 22.6 0 11.4 0 22.7 0 11.4 0 22.8 0 11.4 0 22.8 0 11.4 0 22.8 0 11.4 0 22.9 0 11.4 0 22.9 0 11.4 0 22.9 0 11.5 0 23 0 11.5 0 23 0 11.5 0 23 0 11.5 0 23 0 11.5 0 23 0 11.6 0 23.1 0 11.5 0 23.1 0 11.5 0 23 0 11.6 0 23.1 0 11.6 0 23.1 0 11.5 0 23.1 0 11.5 0 23.1 0 11.5 0 23 0 11.6 0 23.1 0 11.5 0 23.1 0 11.5 0 23 0 11.5 0 23 0 11.5 0 23 0 11.5 0 23 0 11.5 0 23 0 11.5 0 22.9 0 11.5 0 22.9 0 11.5 0 22.9 0 11.4 0 22.8 0 11.4 0 22.8 0 11.4 0 22.8 0 11.3 0 22.7 0 11.3 0 22.6 0 11.3 0 22.6 0 11.3 0 22.6 0 11.2 0 22.5 0 11.2 0 22.4 0 11.2 0 22.4 0 11.1 0 22.3 0 11.1 0 22.2 0 11.1 0 22.2 0 11 0 22.1 0 11 0 22 0 11 0 21.9 0 11 0 21.9 0 10.9 0 21.8 0 10.8 0 21.7 0 10.8 0 21.6 0 10.7 0 21.5 0 10.7 0 21.4 0 10.6 0 21.3 0 10.6 0 21.2 0 10.6 0 21.1 0 10.5 0 21 0 10.5 0 20.9 0 10.4 0 20.8 0 10.3 0 20.6 0 10.3 0 20.6 0 10.2 0 20.4 0 10.2 0 20.3 0 10.1 0 20.1 0 20.1 0 40 0 19.8 0 39.4 0 19.6 0 38.8 0 19.3 0 38.3 0 19 0 37.6 0 18.7 0 37 0 18.4 0 36.4 0 18 0 35.7 0 17.7 0 35 0 17.3 0 34.2 0 17 0 33.6 0 16.5 0 32.7 0 16.2 0 32 0 15.8 0 31.1 0 15.4 0 30.4 0 14.9 0 29.4 0 14.5 0 28.6 0 14.1 0 27.7 0 13.6 0 26.7 0 13.2 0 25.8 0 12.7 0 24.9 0 12.2 0 23.8 0 11.7 0 22.9 0 11.1 0 21.8 0 10.6 0 20.7 0 20.2 0 38.2 0 18 0 33.7 0 15.7 0 29 0 13.3 0 24.2 0c14.4 0 25.4 0 32.9 0 7.5 0 11.3 0 11.3 0 13.8 0 26.3 5.6 35.4 14.6 9 9.1 14.6 21.6 14.6 35.4 0 0 0 6.3 0 17.2 0 5.5 0 12.2 0 19.9 0 7.6 0 16.3 0 25.7 0 9.4 0 19.6 0 30.4 0 10.8 0 22.2 0 33.9 0 11.8 0 24 0 36.4 0 12.3 0 24.9 0 37.4 0 12.6 0 25.2 0 37.5 0 12.4 0 24.6 0 36.3 0 11.8 0 23.2 0 34 0 10.8 0 21 0 30.4 0 9.4 0 18.1 0 25.7 0 7.7 0 14.3 0 19.8 0 11 0 17.3 0 17.3 0 6.9-1.4 13.7-3.9 20.2-2.6 6.5-6.2 12.6-10.7 18-4.6 5.4-10 10.2-15.9 13.9-6 3.7-12.6 6.3-19.5 7.7 0 0-3.8 0.7-11.3 2.2-7.5 1.4-18.5 3.5-32.9 6.3q-10.9 2.1-24.2 4.6-13.3 2.5-29 5.5-15.7 2.9-33.7 6.2-18 3.3-38.2 7-10.1 1.8-20.7 3.7-10.7 2-21.8 3.9-11.2 2-22.9 4.1-11.6 2-23.8 4.2-12.2 2.1-24.9 4.3-12.6 2.1-25.8 4.4-13.1 2.2-26.7 4.5-13.6 2.2-27.7 4.5-14.1 2.4-28.6 4.7-14.5 2.4-29.4 4.7-15 2.4-30.4 4.8-15.3 2.4-31.1 4.8-15.8 2.4-32 4.9-16.2 2.4-32.7 4.8-16.6 2.4-33.6 4.9-16.9 2.4-34.2 4.8-17.3 2.4-35 4.9-17.7 2.4-35.7 4.8-18 2.3-36.4 4.7-18.3 2.4-37 4.7-18.6 2.3-37.6 4.6-19 2.3-38.3 4.6-19.2 2.2-38.8 4.4-19.6 2.2-39.4 4.4-9.9 1.1-19.9 2.1-10 1.1-20.1 2.1-10 1.1-20.1 2.1-10.1 1-20.3 2.1-10.2 1-20.4 2-10.3 1-20.6 2-10.3 0.9-20.6 1.9-10.4 1-20.8 1.9-10.4 1-20.9 1.9-10.5 0.9-21 1.9-10.5 0.9-21.1 1.8-10.6 0.9-21.2 1.7-10.7 0.9-21.3 1.8-10.7 0.8-21.4 1.7-10.8 0.8-21.5 1.6-10.8 0.8-21.6 1.6-10.9 0.8-21.7 1.6-10.9 0.7-21.8 1.5-10.9 0.7-21.9 1.5-10.9 0.7-21.9 1.4-11 0.7-22 1.4-11.1 0.7-22.1 1.3-11.1 0.7-22.2 1.3-11.1 0.6-22.2 1.3-11.2 0.6-22.3 1.1-11.2 0.6-22.4 1.2-11.2 0.6-22.4 1.1-11.3 0.5-22.5 1-11.3 0.6-22.6 1-11.3 0.5-22.6 1-11.3 0.5-22.6 0.9-11.4 0.4-22.7 0.8-11.4 0.5-22.8 0.8-11.4 0.4-22.8 0.8-11.4 0.3-22.8 0.7-11.4 0.3-22.9 0.6-11.4 0.3-22.9 0.6-11.4 0.3-22.9 0.6-11.5 0.2-23 0.4-11.5 0.3-23 0.5-11.5 0.2-23 0.4-11.5 0.1-23 0.3-11.5 0.1-23 0.2-11.6 0.2-23.1 0.3-11.5 0.1-23.1 0.1-11.5 0.1-23 0.1-11.6 0.1-23.1 0.1-11.6 0-23.1 0-11.5 0-23.1 0-11.5-0.1-23.1-0.1-11.5-0.1-23-0.2-11.6-0.1-23.1-0.2-11.5-0.1-23.1-0.3-11.5-0.1-23-0.3-11.5-0.2-23-0.4-11.5-0.2-23-0.4-11.5-0.2-23-0.5-11.5-0.2-23-0.5-11.5-0.3-22.9-0.6-11.5-0.3-22.9-0.6-11.5-0.3-22.9-0.7-11.4-0.3-22.8-0.7-11.4-0.4-22.8-0.8-11.4-0.4-22.8-0.8-11.3-0.5-22.7-0.9-11.3-0.5-22.6-1-11.3-0.5-22.6-1-11.3-0.5-22.6-1-11.2-0.5-22.5-1.1-11.2-0.6-22.4-1.1-11.2-0.6-22.4-1.2-11.1-0.6-22.3-1.2-11.1-0.7-22.2-1.3-11.1-0.7-22.2-1.4-11-0.6-22.1-1.3-11-0.7-22-1.4-11-0.8-21.9-1.5-11-0.8-21.9-1.5-10.9-0.8-21.8-1.6-10.8-0.8-21.7-1.6-10.8-0.8-21.6-1.6-10.7-0.8-21.5-1.7-10.7-0.8-21.4-1.7-10.7-0.8-21.3-1.7-10.6-0.9-21.2-1.8-10.6-0.9-21.1-1.8-10.5-1-21-1.9-10.5-1-20.9-1.9-10.4-1-20.8-2-10.3-0.9-20.6-1.9-10.3-1-20.6-2-10.2-1-20.4-2.1-10.2-1-20.3-2-10.1-1.1-20.1-2.1-10.1-1.1-20.1-2.1-10-1.1-19.9-2.2-19.8-2.2-39.4-4.4-19.6-2.2-38.8-4.4-19.3-2.3-38.3-4.6-19-2.3-37.6-4.6-18.7-2.3-37-4.7-18.4-2.4-36.4-4.7-18-2.4-35.7-4.8-17.7-2.4-35-4.8-17.3-2.4-34.2-4.8-17-2.5-33.6-4.9-16.5-2.4-32.7-4.8-16.2-2.4-32-4.8-15.8-2.4-31.1-4.8-15.4-2.4-30.4-4.7-14.9-2.4-29.4-4.7-14.5-2.3-28.6-4.6-14.1-2.3-27.7-4.5-13.6-2.3-26.7-4.5-13.2-2.2-25.8-4.3-12.7-2.2-24.9-4.2-12.2-2.1-23.8-4.2-11.7-2-22.9-3.9-11.1-2-21.8-3.9-10.6-1.9-20.7-3.7-20.2-3.6-38.2-6.8-18-3.3-33.7-6.2-15.7-2.9-29-5.4-13.3-2.4-24.2-4.5c-14.4-2.7-25.4-4.8-32.9-6.2-7.5-1.4-11.3-2.1-11.3-2.1-6.9-1.3-13.5-4-19.5-7.7-5.9-3.6-11.3-8.3-15.9-13.7-4.5-5.4-8.1-11.5-10.7-18-2.5-6.5-3.9-13.3-3.9-20.2 0 0 0-6.3 0-17.3 0-5.5 0-12.1 0-19.8 0-7.6 0-16.3 0-25.7 0-9.4 0-19.6 0-30.4 0-10.8 0-22.2 0-34 0-11.7 0-23.9 0-36.3 0-12.3 0-24.9 0-37.5 0-12.5 0-25.1 0-37.4 0-12.4 0-24.6 0-36.4 0-11.7 0-23.1 0-33.9 0-10.8 0-21 0-30.4 0-9.4 0-18.1 0-25.7 0-7.7 0-14.4 0-19.9 0-10.9 0-17.2 0-17.2zm-87-68.1c0-27.6 22.4-50 50-50h4114c27.6 0 50 22.4 50 50v82c0 27.6-22.4 50-50 50h-4114c-27.6 0-50-22.4-50-50zm0 400c0-27.6 22.4-50 50-50h4114c27.6 0 50 22.4 50 50v82c0 27.6-22.4 50-50 50h-4114c-27.6 0-50-22.4-50-50z"/>
</svg>